<?xml version="1.0" encoding="UTF-8" standalone="no"?>
<!-- Created with Inkscape (http://www.inkscape.org/) -->

<svg
   width="90.26532mm"
   height="90.26532mm"
   viewBox="0 0 90.26532 90.26532"
   version="1.1"
   id="svg1"
   xml:space="preserve"
   inkscape:version="1.3.2 (1:1.3.2+202311252150+091e20ef0f)"
   sodipodi:docname="favicon.svg"
   xmlns:inkscape="http://www.inkscape.org/namespaces/inkscape"
   xmlns:sodipodi="http://sodipodi.sourceforge.net/DTD/sodipodi-0.dtd"
   xmlns="http://www.w3.org/2000/svg"
   xmlns:svg="http://www.w3.org/2000/svg"><sodipodi:namedview
     id="namedview1"
     pagecolor="#505050"
     bordercolor="#ffffff"
     borderopacity="1"
     inkscape:showpageshadow="0"
     inkscape:pageopacity="0"
     inkscape:pagecheckerboard="1"
     inkscape:deskcolor="#d1d1d1"
     inkscape:document-units="mm"
     inkscape:zoom="0.99780624"
     inkscape:cx="216.97599"
     inkscape:cy="198.43532"
     inkscape:window-width="1876"
     inkscape:window-height="979"
     inkscape:window-x="1784"
     inkscape:window-y="52"
     inkscape:window-maximized="1"
     inkscape:current-layer="layer1" /><defs
     id="defs1"><inkscape:path-effect
       effect="fillet_chamfer"
       id="path-effect51"
       is_visible="true"
       lpeversion="1"
       nodesatellites_param="F,0,0,1,0,0,0,1 @ F,0,0,1,0,0,0,1 @ F,0,0,1,0,0,0,1 @ F,0,0,1,0,0,0,1"
       radius="0"
       unit="px"
       method="auto"
       mode="F"
       chamfer_steps="1"
       flexible="false"
       use_knot_distance="true"
       apply_no_radius="true"
       apply_with_radius="true"
       only_selected="false"
       hide_knots="false" /><inkscape:path-effect
       effect="powerclip"
       id="path-effect50"
       is_visible="true"
       lpeversion="1"
       inverse="true"
       flatten="false"
       hide_clip="false"
       message="Use fill-rule evenodd on &lt;b&gt;fill and stroke&lt;/b&gt; dialog if no flatten result after convert clip to paths." /><filter
       id="mask-powermask-path-effect7_inverse"
       inkscape:label="filtermask-powermask-path-effect7"
       style="color-interpolation-filters:sRGB"
       height="100"
       width="100"
       x="-50"
       y="-50"><feColorMatrix
         id="mask-powermask-path-effect7_primitive1"
         values="1"
         type="saturate"
         result="fbSourceGraphic" /><feColorMatrix
         id="mask-powermask-path-effect7_primitive2"
         values="-1 0 0 0 1 0 -1 0 0 1 0 0 -1 0 1 0 0 0 1 0 "
         in="fbSourceGraphic" /></filter><filter
       id="mask-powermask-path-effect8_inverse"
       inkscape:label="filtermask-powermask-path-effect8"
       style="color-interpolation-filters:sRGB"
       height="100"
       width="100"
       x="-50"
       y="-50"><feColorMatrix
         id="mask-powermask-path-effect8_primitive1"
         values="1"
         type="saturate"
         result="fbSourceGraphic" /><feColorMatrix
         id="mask-powermask-path-effect8_primitive2"
         values="-1 0 0 0 1 0 -1 0 0 1 0 0 -1 0 1 0 0 0 1 0 "
         in="fbSourceGraphic" /></filter><filter
       id="mask-powermask-path-effect18_inverse"
       inkscape:label="filtermask-powermask-path-effect18"
       style="color-interpolation-filters:sRGB"
       height="100"
       width="100"
       x="-50"
       y="-50"><feColorMatrix
         id="mask-powermask-path-effect18_primitive1"
         values="1"
         type="saturate"
         result="fbSourceGraphic" /><feColorMatrix
         id="mask-powermask-path-effect18_primitive2"
         values="-1 0 0 0 1 0 -1 0 0 1 0 0 -1 0 1 0 0 0 1 0 "
         in="fbSourceGraphic" /></filter><filter
       id="mask-powermask-path-effect29_inverse"
       inkscape:label="filtermask-powermask-path-effect29"
       style="color-interpolation-filters:sRGB"
       height="100"
       width="100"
       x="-50"
       y="-50"><feColorMatrix
         id="mask-powermask-path-effect29_primitive1"
         values="1"
         type="saturate"
         result="fbSourceGraphic" /><feColorMatrix
         id="mask-powermask-path-effect29_primitive2"
         values="-1 0 0 0 1 0 -1 0 0 1 0 0 -1 0 1 0 0 0 1 0 "
         in="fbSourceGraphic" /></filter><clipPath
       clipPathUnits="userSpaceOnUse"
       id="clipPath50"><path
         id="lpe_path-effect50"
         style="fill:#fbfbfb;stroke-width:1.79994;stroke-linecap:round;stroke-linejoin:round;stroke-miterlimit:52"
         class="powerclip"
         d="M 64.976799,17.532631 H 168.24212 V 120.79795 H 64.976799 Z m 40.066121,39.277721 c 1.31578,-0.215964 2.20119,-1.449102 1.98523,-2.764883 L 103.6514,33.47226 c -0.21596,-1.315781 -1.4491,-2.201193 -2.76488,-1.985229 l -7.91155,1.298548 c -1.315784,0.215964 -2.201196,1.449102 -1.985233,2.764883 l 3.376753,20.573209 c 0.215964,1.315781 1.449102,2.201193 2.764883,1.985229 z m 40.96455,-15.434014 -1.37209,-8.359592 -41.09,6.744242 1.37209,8.359592 z m -10.6738,64.698342 -7e-5,3e-4 c 3.41639,0.0164 6.28156,0.017 6.36706,7.9e-4 0.0855,-0.0161 0.22595,-0.0292 0.31205,-0.0292 0.0861,0 0.31821,-0.13599 0.51573,-0.30221 l 0.35915,-0.30219 v -4.3785 c 0,-4.8301 -0.0115,-4.915492 -0.73332,-5.429453 -0.27894,-0.198609 -0.60501,-0.270683 -1.53227,-0.338693 -2.25685,-0.165531 -4.87133,-0.904324 -6.50205,-1.837346 -1.3066,-0.74758 -2.2605,-1.5035 -3.43215,-2.719782 -1.87337,-1.944748 -2.86045,-3.483747 -3.50811,-5.469591 -0.0571,-0.175019 -1.19267,-4.894138 0.41809,-6.349375 0.5696,-0.514602 1.26807,-0.875761 1.7709,-0.915541 0.3525,-0.02792 0.3899,4.9e-4 0.4213,0.319548 l 0.0344,0.350176 3.97255,0.02751 c 4.29788,0.02978 4.40838,0.01598 4.8127,-0.601098 0.10582,-0.161537 0.19342,-0.413724 0.19422,-0.560433 9e-4,-0.146709 0.0403,-0.323521 0.0875,-0.393031 0.0472,-0.06946 0.97874,-0.216807 2.07016,-0.327445 3.84296,-0.38957 6.51741,-1.114232 9.45505,-2.561889 2.80159,-1.38062 4.01952,-2.253552 6.12827,-4.392322 1.70543,-1.729721 2.95693,-3.12757 3.83996,-4.634722 0.19437,-0.331748 0.4092,-0.637672 0.4773,-0.679762 0.13702,-0.08468 0.78172,-1.43573 0.94702,-1.9846 0.17466,-0.579972 0.003,-1.089038 -0.55511,-1.647269 -0.39003,-0.390031 -0.60164,-0.513096 -0.88234,-0.513072 -0.2031,2e-6 -0.66134,-0.0601 -1.01831,-0.133604 -0.40663,-0.0837 -0.98777,-0.10172 -1.55595,-0.0482 -0.83714,0.07884 -0.91993,0.110593 -1.07619,0.412768 -0.0942,0.182211 -0.33908,0.388667 -0.5522,0.465537 -0.36605,0.132083 -3.87447,0.233212 -13.77758,0.39714 l -3.47268,0.0575 v -0.676566 c 0,-0.758534 -0.22873,-1.165228 -0.78397,-1.393925 -0.24209,-0.09935 -7.8774,-0.126052 -29.94301,-0.103352 l -33.851394,0.0305 -0.439677,0.439716 -0.439674,0.439716 0.0406,3.995986 c 0.0283,2.789227 0.08119,4.045514 0.175091,4.159981 0.32262,0.393272 0.778701,0.445457 2.936036,0.336182 3.429082,-0.173699 13.265637,-0.04617 15.131989,0.248057 2.781883,0.43855 4.498108,0.988537 6.444692,2.065261 4.471037,2.47309 6.846607,5.460651 7.351607,9.24542 0.18589,1.39319 0.0802,3.516474 -0.23636,4.750062 -0.44907,1.749722 -1.79835,4.112165 -3.2347,5.663581 -2.187269,2.362502 -6.184139,4.271187 -9.414688,4.495951 -1.470195,0.102277 -1.687801,0.156752 -2.111111,0.528402 -0.730338,0.641281 -0.746938,0.766146 -0.696738,5.251727 0.02491,2.21832 0.0452,4.12485 0.0452,4.23673 5e-6,0.11189 0.128928,0.33237 0.286509,0.48995 l 0.28652,0.28652 h 6.52404 c 7.489558,1e-5 6.791628,0.12133 7.005288,-1.21765 0.0779,-0.48799 0.2141,-0.89412 0.34325,-1.02327 0.23314,-0.23313 2.00839,-0.8774 3.43494,-1.24658 1.5707,-0.40653 3.72044,-0.50963 9.37569,-0.44993 6.73356,0.0711 7.67618,0.19447 10.05343,1.3155 1.42069,0.66995 1.42995,0.68091 1.79468,2.12483 l 0.12508,0.49506 z" /></clipPath></defs><g
     inkscape:label="Layer 1"
     inkscape:groupmode="layer"
     id="layer1"
     transform="translate(-71.476799,-24.032631)"><path
       id="path6"
       clip-path="url(#clipPath50)"
       d="m 161.74212,69.165291 c 0,24.926079 -20.20658,45.132659 -45.13266,45.132659 -24.92608,0 -45.13266,-20.206579 -45.132661,-45.132659 0,-24.92608 20.206581,-45.132661 45.132661,-45.13266 24.92608,0 45.13266,20.20658 45.13266,45.13266 z"
       style="fill:#ebdbb2;fill-opacity:1;stroke:none;stroke-width:3;stroke-linecap:round;stroke-linejoin:round;stroke-miterlimit:52;stroke-dasharray:none;stroke-opacity:1" /><g
       id="g14"
       transform="translate(3.1750001)"><g
         id="g10"
         transform="matrix(-0.69846803,0.11464195,-0.11464195,-0.69846803,212.59034,165.98485)"><g
           id="g12"><g
             id="g13"><g
               id="g23" /></g></g></g></g></g></svg>
