<?xml version="1.0" encoding="UTF-8" standalone="no"?>
<!-- Created with Inkscape (http://www.inkscape.org/) -->

<svg
   version="1.1"
   id="svg1"
   width="367.35999"
   height="453.44"
   viewBox="0 0 367.35999 453.44"
   sodipodi:docname="toyoshima_logo_alt.svg"
   inkscape:version="1.3.2 (091e20e, 2023-11-25)"
   xmlns:inkscape="http://www.inkscape.org/namespaces/inkscape"
   xmlns:sodipodi="http://sodipodi.sourceforge.net/DTD/sodipodi-0.dtd"
   xmlns="http://www.w3.org/2000/svg"
   xmlns:svg="http://www.w3.org/2000/svg">
  <defs
     id="defs1" />
  <sodipodi:namedview
     id="namedview1"
     pagecolor="#ffffff"
     bordercolor="#000000"
     borderopacity="0.25"
     inkscape:showpageshadow="2"
     inkscape:pageopacity="0.0"
     inkscape:pagecheckerboard="0"
     inkscape:deskcolor="#d1d1d1"
     inkscape:zoom="2.4898883"
     inkscape:cx="102.61504"
     inkscape:cy="143.37993"
     inkscape:window-width="2560"
     inkscape:window-height="1600"
     inkscape:window-x="0"
     inkscape:window-y="0"
     inkscape:window-maximized="1"
     inkscape:current-layer="g1" />
  <g
     inkscape:groupmode="layer"
     inkscape:label="Image"
     id="g1">
    <path
       style="fill:#ffffff;fill-opacity:1;stroke:#000000;stroke-width:2;stroke-dasharray:none;stroke-opacity:1"
       d="m 138.06407,446.31293 c -6.06524,-1.3302 -9.72317,-6.38296 -9.37826,-12.95433 0.24157,-4.60263 2.6791,-8.393 6.65425,-10.34742 1.59375,-0.78358 2.10375,-0.86729 5.28401,-0.86729 3.03785,0 3.70454,0.0986 4.86725,0.72 0.74099,0.396 1.42499,0.72 1.52,0.72 0.095,0 0.17275,-2.15493 0.17275,-4.78874 0,-5.54953 -0.057,-5.45126 3.16082,-5.45126 3.10393,0 2.91918,-1.05449 2.91918,16.66161 0,17.67386 0.27952,16.29839 -3.31206,16.29839 -1.94847,0 -2.17314,-0.0691 -2.49062,-0.76589 l -0.34897,-0.7659 -1.71123,0.78343 c -1.90784,0.87344 -5.23975,1.21739 -7.33712,0.7574 z m 5.9862,-6.45176 c 1.38439,-0.69582 2.65073,-2.6856 2.96921,-4.66548 0.5069,-3.15135 -1.72449,-6.79683 -4.47631,-7.31308 -5.09972,-0.95671 -8.75443,3.03183 -7.51441,8.20081 0.95597,3.98493 5.13093,5.7332 9.02151,3.77775 z"
       id="path1" />
    <path
       style="fill:#223d78;fill-opacity:1;stroke:#000000;stroke-width:2;stroke-dasharray:none;stroke-opacity:1"
       d="m 29.024069,6.5719641 c 0.22,-0.088772 0.58,-0.088772 0.8,0 0.22,0.088772 0.04,0.1614035 -0.4,0.1614035 -0.44,0 -0.62,-0.072632 -0.4,-0.1614035 z"
       id="path47" />
    <path
       style="fill:#223d78;fill-opacity:1;stroke:#000000;stroke-width:2;stroke-dasharray:none;stroke-opacity:1"
       d="m 23.924069,196.96529 c 0.231,-0.0924 0.507,-0.0811 0.61334,0.0253 0.10633,0.10633 -0.0827,0.18196 -0.42,0.16807 -0.37279,-0.0154 -0.44861,-0.0912 -0.19334,-0.19334 z"
       id="path45" />
    <path
       style="fill:#223d78;fill-opacity:1;stroke:#000000;stroke-width:2;stroke-dasharray:none;stroke-opacity:1"
       d="m 115.82407,245.50716 c -0.29999,-0.19183 -15.840371,-0.30642 -41.440001,-0.30555 -39.89006,0.001 -41.02501,-0.0153 -43.44878,-0.63733 -1.36883,-0.35128 -3.02483,-0.87426 -3.68,-1.16217 -0.65517,-0.28791 -1.47922,-0.64271 -1.83122,-0.78844 -2.14775,-0.88921 -4.98928,-2.31026 -6.02489,-3.01304 -0.66194,-0.44921 -1.41313,-0.81674 -1.66932,-0.81674 -0.25618,0 -0.46579,-0.1533 -0.46579,-0.34066 0,-0.5024 -1.97536,-2.07491 -2.46733,-1.96415 -0.23254,0.0524 -0.38452,-0.0406 -0.33773,-0.20666 0.0468,-0.16601 -0.49094,-0.86201 -1.19494,-1.54666 -2.73251,-2.65739 -5.9447901,-7.00854 -7.9520401,-10.77131 -0.64238,-1.20419 -1.16796,-2.39414 -1.16796,-2.64434 0,-0.2502 -0.1272,-0.70495 -0.28266,-1.01056 -0.6069,-1.19304 -0.96894,-2.20175 -1.17565,-3.27566 -0.11857,-0.616 -0.32487,-1.264 -0.45843,-1.44 -0.34682,-0.457 -1.09276,-4.49588 -1.47751997,-8 -0.11596,-1.056 -0.34267,-2.08718 -0.50382,-2.29151 -0.18117,-0.22972 -0.16493,-0.45066 0.0425,-0.57889 0.49134,-0.30366 0.44715,-8.56998 -0.0485,-9.0656 -0.29867,-0.29867 -0.29867,-0.384 0,-0.384 0.29756,0 0.38359,-16.5501 0.38218,-73.52 -0.001,-49.639635 0.10874,-74.611376 0.33855,-76.879999 0.74489997,-7.353509 2.22467997,-12.502697 5.19583997,-18.08 0.80542,-1.511907 1.07045,-1.967526 1.62055,-2.785928 0.32013,-0.47626 0.48913,-1.01626 0.37558,-1.2 -0.11536,-0.186662 0.0579,-0.334072 0.39269,-0.334072 0.38771,0 0.75424,-0.395251 1.03861,-1.12 0.2417,-0.616 0.5586101,-1.12 0.7042401,-1.12 0.48921,0 2.16126,-2.075439 2.01136,-2.49662 -0.0816,-0.229141 -0.007,-0.329166 0.16619,-0.222278 0.37984,0.234759 2.55821,-1.366919 2.55821,-1.880967 0,-0.200147 0.396,-0.540209 0.88,-0.755692 0.484,-0.215484 1.456,-0.895874 2.16,-1.511977 0.704,-0.616104 1.46,-1.122951 1.68,-1.126327 0.22,-0.0034 0.40034,-0.114139 0.40076,-0.246139 10e-4,-0.38963 4.89696,-2.7336859 8.15924,-3.9066137 1.056,-0.3796769 2.316,-0.8913138 2.8,-1.1369709 0.55267,-0.2805122 0.88,-0.3204224 0.88,-0.1072961 0,0.2012127 0.22796,0.2417376 0.56,0.099553 1.69145,-0.7243018 5.1652,-0.8962308 20.32,-1.0057112 50.758911,-0.8651474 96.803891,-0.0089 146.400001,0 44.45432,1.8667491 88.08611,-2.7225784 129.43999,0 3.38811,0.1742543 5.48704,0.437065 6.32,0.7762988 0.264,0.1075165 0.696,0.2207899 0.96,0.2517187 1.50911,0.1767989 7.57203,3.1300874 11.2,5.0214514 0.14241,0.07424 0.27867,0.160073 0.41334,0.247573 0.55435,0.36017 1.11207,0.720402 1.62249,1.140515 3.31695,2.73007 6.49401,5.669284 9.30071,8.921648 0.70164,0.81304 1.35291,1.682952 1.86609,2.626332 2.2957,4.220167 4.13074,7.863013 5.32803,13.391506 0.71575,3.304958 0.97993,12.188599 1.02538,34.48 0.0328,16.073085 0.14956,22.96 0.38938,22.96 0.22043,0 0.20566,0.13692 -0.0414,0.384 -0.50027,0.500278 -0.56358,74.667235 -0.064,74.975995 0.176,0.10877 0.32,1.19727 0.32,2.41889 0,1.26741 -0.1374,2.22111 -0.32,2.22111 -0.20341,0 -0.32,2.50667 -0.32,6.88 0,4.37333 0.0425,4.84759 0.0302,7.27137 -0.0185,3.65654 0.096,1.91006 -0.15686,10.96863 -0.2456,8.79813 -0.71906,12.33026 -2.27338,16.96 -0.99581,2.96613 -4.6588,10.04372 -5.35489,10.34667 -0.13481,0.0587 -0.2451,0.23706 -0.2451,0.39642 0,0.48566 -2.73198,3.88709 -4.3733,5.44496 -3.54563,3.36535 -11.25902,8.09731 -14.3467,8.80131 -0.528,0.12039 -1.104,0.32371 -1.28,0.45182 -0.176,0.12812 -0.68,0.31424 -1.12,0.41361 -0.44,0.0994 -1.376,0.33273 -2.08,0.51857 -3.94238,1.04071 -5.3443,1.05975 -74.54322,1.01261 -76.85875,-0.0524 -71.10144,0.11824 -75.94299,-2.25029 -2.88418,-1.41097 -5.33157,-3.49928 -6.86743,-5.85984 -1.28749,-1.97883 -2.41801,-4.65579 -2.69333,-6.3775 -0.1084,-0.67789 -0.32217,-1.30983 -0.47505,-1.40432 -0.15288,-0.0945 -0.27797,-0.63849 -0.27797,-1.2089 0,-0.57042 -0.13073,-1.17392 -0.2905,-1.34112 -0.30268,-0.31675 -0.45598,-1.46616 -0.9795,-7.344 -0.71744,-8.05514 -0.93366,-20.46903 -0.95587,-54.88 -0.0198,-30.66803 -0.0948,-36.52486 -0.48221,-37.63646 -0.58746,-1.68576 -3.02308,-6.43604 -3.83585,-7.48121 -1.35654,-1.74442 -8.51796,-8.64233 -8.97249,-8.64233 -0.26597,0 -0.48358,-0.19003 -0.48358,-0.42229 0,-0.57531 -1.1072,-1.49414 -4.92003,-4.08294 -1.78198,-1.20991 -3.38397,-2.31547 -3.55997,-2.45678 -1.69539,-1.36127 -3.48362,-2.41633 -4.24588,-2.50509 -0.50967,-0.0593 -1.33604,-0.26353 -1.83638,-0.45376 -1.20036,-0.45638 -11.6841,-0.37553 -12.26213,0.0946 -0.29174,0.23727 -0.49178,0.2412 -0.64,0.0126 -0.13339,-0.20574 -3.20511,-0.40908 -8.05561,-0.53325 -4.312,-0.11039 -8.416,-0.28302 -9.12,-0.38362 -1.85276,-0.26477 -3.36,0.0764 -3.36,0.76048 0,0.81403 2.6747,3.28185 9.87458,9.11084 2.33576,1.89101 4.02957,3.04793 4.25679,2.9075 0.25338,-0.1566 0.31177,-0.0622 0.17769,0.28717 -0.14323,0.37326 0.53562,1.17983 2.40081,2.8525 1.43028,1.28264 3.25967,3.03872 4.06532,3.90238 0.80565,0.86366 2.40659,2.51966 3.55766,3.68 2.04856,2.06506 3.22063,3.53187 4.11129,5.1452 0.77947,1.41191 0.68514,18.64434 -0.1552,28.35166 -0.16695,1.92856 -0.18136,1.9527 -1.50875,2.52809 -0.7371,0.31952 -2.34819,1.04372 -3.58019,1.60934 -3.42858,1.57408 -4.98682,2.25579 -6.56,2.8699 -1.96518,0.76714 -2.35157,0.93227 -5.22337,2.23228 -1.37685,0.62328 -2.57392,1.13323 -2.66016,1.13323 -0.0862,0 -1.04772,0.42464 -2.13663,0.94365 -1.08891,0.519 -2.77184,1.25024 -3.73984,1.62496 -0.968,0.37473 -2.192,0.87163 -2.72,1.10423 -0.528,0.2326 -1.70375,0.7455 -2.61278,1.13978 -0.90904,0.39428 -1.61664,0.87673 -1.57245,1.07212 0.0442,0.1954 0.0199,0.24726 -0.0539,0.11526 -0.22095,-0.39508 -0.95852,-0.27464 -2.07115,0.3382 -0.57736,0.31801 -1.55374,0.77274 -2.16974,1.01053 -0.616,0.23778 -1.71441,0.69318 -2.440921,1.012 -0.72651,0.31881 -2.95851,1.24648 -4.96,2.06148 -2.00149,0.81501 -4.07108,1.67687 -4.59908,1.91525 -1.77608,0.80188 -7.39892,2.95526 -10.08,3.86034 -0.792,0.26736 -2.05043,0.76423 -2.79651,1.10416 -0.74608,0.33992 -1.58949,0.61804 -1.87423,0.61804 -0.32873,0 -0.45049,0.17522 -0.33354,0.48 0.10131,0.264 0.0447,0.48 -0.12576,0.48 -0.17048,0 -0.30996,-0.14091 -0.30996,-0.31314 0,-0.19453 -0.33333,-0.17943 -0.88,0.0399 -1.91507,0.76817 -2.18262,0.86547 -2.8,1.01839 -1.29833,0.32157 -4.07925,1.42384 -4.27649,1.69506 -0.11193,0.15391 -0.83778,0.30932 -1.61301,0.34534 -0.77522,0.036 -1.56002,0.21602 -1.744,0.4 -0.18397,0.18398 -0.80153,0.3345 -1.37235,0.3345 -0.68682,0 -1.1948,0.22406 -1.50185,0.66245 -0.3332,0.47569 -0.50695,0.54335 -0.61634,0.24 -0.12333,-0.342 -0.28135,-0.34628 -0.82981,-0.0224 -0.3726,0.22 -1.00738,0.4 -1.4106,0.4 -0.40323,0 -1.04373,0.21755 -1.42334,0.48343 -0.44546,0.31202 -0.76222,0.3669 -0.89331,0.15478 -0.11172,-0.18076 -0.36207,-0.23041 -0.55635,-0.11034 -0.3285,0.20302 -0.82197,0.32661 -4.24255,1.0625 -0.704,0.15146 -2.216,0.51042 -3.36,0.79768 -2.05108,0.51505 -4.09079,0.88988 -7.82433,1.43786 -1.20729,0.17719 -2.05648,0.48757 -2.32,0.84796 -0.26921,0.36817 -0.41567,0.42002 -0.41567,0.14716 0,-0.3338 -0.58146,-0.37355 -2.8,-0.19141 -1.54,0.12644 -5.9563,0.28879 -9.814,0.3608 -3.8577,0.072 -7.06936,0.18628 -7.13703,0.25394 -0.0677,0.0677 0.53264,1.13659 1.334,2.37537 0.80137,1.23879 1.45703,2.32741 1.45703,2.41916 0,0.0917 0.52793,1.06759 1.17317,2.16853 1.01099,1.725 1.21073,1.91536 1.44492,1.37714 0.20675,-0.47517 0.23099,-0.41464 0.10133,0.25308 -0.11755,0.60535 0.0795,1.27352 0.63508,2.15364 0.44303,0.7018 0.8055,1.42286 0.8055,1.60236 0,0.1795 0.12089,0.32636 0.26864,0.32636 0.14775,0 0.43266,0.36 0.63314,0.8 0.20047,0.44 0.57907,0.8 0.84132,0.8 0.26311,0 0.40428,0.18904 0.31497,0.42178 -0.1804,0.4701 3.23943,5.47296 5.65282,8.26951 0.85972,0.99621 1.70491,2.18421 1.8782,2.64 0.41821,1.09999 1.29937,1.07111 3.69906,-0.12125 1.05152,-0.52247 2.15708,-0.95447 2.4568,-0.96 0.29971,-0.006 0.94771,-0.17197 1.44,-0.36988 0.49228,-0.19792 1.18305,-0.47687 1.53505,-0.61989 0.79141,-0.32156 2.1319,-0.72979 2.56,-0.77961 0.29842,-0.0347 0.56545,-0.12914 2.24,-0.79205 0.352,-0.13934 1.864,-0.63783 3.36,-1.10775 2.56436,-0.8055 3.66327,-1.21155 4.8105,-1.7775 0.26978,-0.13309 0.95213,-0.34337 1.51634,-0.46729 0.5642,-0.12392 1.10797,-0.35823 1.20838,-0.52069 0.1004,-0.16246 0.53405,-0.29538 0.96367,-0.29538 0.42961,0 0.78111,-0.144 0.78111,-0.32 0,-0.176 0.3312,-0.32 0.736,-0.32 0.4048,0 0.8728,-0.12633 1.04,-0.28074 0.3036,-0.28038 3.57326,-1.54555 4.784,-1.85114 0.352,-0.0889 0.928,-0.28158 1.28,-0.4283 0.352,-0.14673 2.008,-0.72151 3.68,-1.2773 1.672,-0.55579 3.472,-1.20516 4,-1.44304 0.528,-0.23789 2.04,-0.80598 3.36,-1.26244 2.34973,-0.81253 3.4392,-1.24643 4.55566,-1.81437 0.30561,-0.15547 0.77557,-0.28267 1.04434,-0.28267 0.26878,0 0.73873,-0.13349 1.04435,-0.29664 0.30561,-0.16315 0.81678,-0.37813 1.13594,-0.47774 0.31915,-0.0996 0.51396,-0.29012 0.4329,-0.42336 -0.0811,-0.13324 0.41803,-0.26413 1.10909,-0.29086 0.69107,-0.0267 1.43226,-0.18079 1.6471,-0.34236 0.21484,-0.16157 1.03862,-0.48873 1.83062,-0.72704 0.792,-0.23831 1.5768,-0.55224 1.744,-0.69764 0.1672,-0.1454 0.5632,-0.26436 0.88,-0.26436 0.32879,0 0.576,-0.23348 0.576,-0.544 0,-0.37617 0.10254,-0.44146 0.33238,-0.21162 0.36078,0.36078 2.54762,-0.15655 2.54762,-0.60268 0,-0.13293 0.21796,-0.2417 0.48435,-0.2417 0.26638,0 0.73438,-0.13505 1.04,-0.30012 0.30561,-0.16506 1.635651,-0.68317 2.955651,-1.15134 1.32,-0.46818 3.01043,-1.12512 3.75652,-1.45988 0.74608,-0.33476 1.49719,-0.60866 1.66914,-0.60866 0.17195,0 0.85752,-0.23596 1.52349,-0.52435 0.66597,-0.2884 1.49885,-0.63405 1.85085,-0.76811 0.352,-0.13407 1.29269,-0.53212 2.09041,-0.88457 0.79772,-0.35245 2.05772,-0.80435 2.8,-1.00423 0.86512,-0.23295 1.34959,-0.54535 1.34959,-0.87026 0,-0.40003 0.0951,-0.42788 0.45151,-0.13212 0.30866,0.25616 0.51713,0.26856 0.65889,0.0392 0.11405,-0.18455 0.48883,-0.33554 0.83283,-0.33554 0.344,0 0.8755,-0.13505 1.18111,-0.30012 0.30562,-0.16506 1.63566,-0.68317 2.95566,-1.15134 1.32,-0.46818 3.01043,-1.12512 3.75651,-1.45988 0.74609,-0.33476 1.4972,-0.60866 1.66915,-0.60866 0.3009,0 2.13724,-0.73624 3.29,-1.31907 0.30561,-0.15451 0.77557,-0.28093 1.04434,-0.28093 0.26878,0 0.73873,-0.13639 1.04434,-0.30309 0.87185,-0.47557 4.209,-1.61691 4.72767,-1.61691 0.27501,0 0.46799,0.3035 0.46799,0.736 0,0.4048 0.1728,0.9088 0.384,1.12 0.29867,0.29867 0.29867,0.384 0,0.384 -0.47725,0 -0.53093,3.07142 -0.0588,3.36323 0.17887,0.11055 0.24092,0.33739 0.13789,0.5041 -0.10303,0.16671 -0.30312,0.23155 -0.44463,0.14409 -0.2452,-0.15154 -0.75227,10.06065 -0.66679,13.42858 0.0582,2.29441 -0.23176,7.77179 -0.42832,8.08983 -0.0916,0.14815 -0.23886,1.42535 -0.32733,2.83821 -0.0885,1.41287 -0.32768,3.23134 -0.53157,4.04106 -0.20388,0.80971 -0.30447,1.66091 -0.22353,1.89155 0.0809,0.23064 0.0115,0.77935 -0.15436,1.21935 -0.25434,0.67481 -0.63275,2.40427 -0.98024,4.48 -0.33992,2.03047 -2.0299,6.16758 -3.90566,9.56114 -0.56435,1.021 -4.36878,4.83886 -4.82184,4.83886 -0.1978,0 -0.60677,0.27307 -0.9088,0.60681 -0.42673,0.47153 -0.45562,0.64425 -0.1296,0.77474 0.28149,0.11266 0.29414,0.17624 0.0385,0.19319 -0.20962,0.0139 -0.4668,-0.11337 -0.57151,-0.28281 -0.11249,-0.182 -0.61127,-0.0751 -1.21889,0.2612 -1.17001,0.6476 -4.91814,1.83332 -6.70849,2.12223 -0.66,0.1065 -1.2,0.33112 -1.2,0.49914 0,0.38618 -0.34482,0.38214 -0.96,-0.0112 z m 133.06068,-20.45875 c 1.32141,-0.54245 2.55263,-0.99539 7.09932,-2.61168 0.616,-0.21898 1.552,-0.57922 2.08,-0.80053 0.528,-0.22131 1.752,-0.70559 2.72,-1.07617 1.90705,-0.73009 3.0455,-1.21082 3.91565,-1.65347 0.30562,-0.15547 0.76162,-0.28267 1.01334,-0.28267 0.25172,0 0.50567,-0.108 0.56434,-0.24 0.0587,-0.132 0.89867,-0.50907 1.86667,-0.83795 0.968,-0.32887 3.09603,-1.22887 4.72897,-2 1.63293,-0.77112 3.08513,-1.40205 3.2271,-1.40205 0.14198,0 1.25394,-0.48329 2.47103,-1.07397 1.21709,-0.59069 3.6529,-1.75368 5.4129,-2.58442 5.31449,-2.50852 6.07327,-2.88458 6.24,-3.09264 0.088,-0.10982 0.664,-0.45768 1.28,-0.77302 3.71426,-1.9014 9.46323,-6.16959 12.86116,-9.54848 3.9195,-3.89753 5.37883,-5.49773 5.37883,-5.89803 0,-0.14086 0.504,-0.79044 1.12,-1.44351 0.616,-0.65308 1.12,-1.2858 1.12,-1.40605 0,-0.12025 0.26304,-0.51591 0.58452,-0.87925 1.55915,-1.76217 5.06473,-7.87297 6.71229,-11.70063 0.3409,-0.792 0.90493,-2.088 1.25338,-2.88 0.34846,-0.792 1.02462,-2.592 1.50257,-4 0.47796,-1.408 0.98922,-2.848 1.13612,-3.2 0.14691,-0.352 0.50221,-1.504 0.78956,-2.56 0.28734,-1.056 0.64228,-2.352 0.78875,-2.88 0.31426,-1.13288 0.86791,-3.20154 1.30608,-4.88 0.33661,-1.28946 1.74598,-7.30061 2.08199,-8.88 0.40251,-1.89195 1.24529,-6.75646 2.13445,-12.32 1.47216,-9.21138 2.24866,-20.25805 2.12044,-30.16582 l -0.0901,-6.965817 -74.16,-0.07418 c -40.788,-0.0408 -74.16,0.0326 -74.15999,0.163108 0,0.130508 0.288,0.417147 0.64,0.636975 0.352,0.219827 0.64,0.522818 0.64,0.673313 0,0.150494 0.27236,0.656114 0.60523,1.123599 0.6477,0.909602 3.13568,5.775982 4.03324,7.888822 1.81706,4.27734 2.17559,4.78859 3.52153,5.02156 0.704,0.12186 2.36,0.24421 3.68,0.2719 3.91266,0.0821 3.96571,0.11639 4.20299,2.71955 1.20183,13.18483 1.5376,19.15918 1.51897,27.02699 -0.0268,11.3003 -0.99408,23.13875 -2.52886,30.94915 -0.37296,1.89797 -0.81198,3.7009 -0.9756,4.00651 -0.16363,0.30561 -0.2975,0.78019 -0.2975,1.05462 0,0.27443 -0.36974,1.68038 -0.82164,3.12434 -0.84623,2.70398 -0.92263,2.91028 -1.97964,5.34538 -0.34379,0.792 -0.89062,2.16 -1.21519,3.04 -0.65878,1.78618 -1.91873,4.21752 -2.58121,4.981 -0.2391,0.27555 -0.52643,0.95955 -0.63852,1.52 -0.20311,1.01553 -0.19923,1.019 1.13593,1.019 0.89042,0 2.16485,0.39832 3.8,1.18769 2.85347,1.37751 9.05313,5.33212 10.4789,6.68424 0.53825,0.51044 1.69045,1.57607 2.56045,2.36807 0.86999,0.792 1.9053,1.872 2.30068,2.4 l 0.71888,0.96 0.72068,-0.83715 c 1.60002,-1.85859 2.00629,-2.42336 2.73558,-3.80285 0.41871,-0.792 1.22197,-2.16 1.78503,-3.04 0.56306,-0.88 1.23419,-2.032 1.4914,-2.56 0.2572,-0.528 0.54981,-1.032 0.65022,-1.12 0.57408,-0.50309 4.77845,-10.33995 4.77845,-11.18001 0,-0.29259 0.11896,-0.66879 0.26436,-0.83599 0.14539,-0.1672 0.45009,-0.952 0.67711,-1.744 0.22701,-0.792 0.53431,-1.8 0.68288,-2.24 0.45843,-1.35772 1.37257,-6.16866 1.91532,-10.08 0.17096,-1.232 0.45839,-4.904 0.63874,-8.16 0.49361,-8.91136 0.54261,-9.25039 1.36457,-9.44086 0.38336,-0.0888 15.70902,-0.21243 34.05702,-0.27466 27.51789,-0.0933 33.36,-0.039 33.36,0.31033 0,0.23291 -0.23596,0.96836 -0.52436,1.63433 -0.28839,0.66598 -0.6333,1.49886 -0.76646,1.85086 -0.13316,0.352 -0.60658,1.432 -1.05203,2.4 -0.44546,0.968 -1.17429,2.552 -1.61964,3.52 -2.57513,5.59732 -7.58718,13.20199 -11.47929,17.41729 -3.97781,4.30811 -5.22323,5.49277 -7.27822,6.92314 -0.616,0.42876 -1.192,0.85899 -1.28,0.95605 -0.088,0.0971 -0.808,0.61743 -1.6,1.15637 -5.00971,3.40903 -9.3085,5.96388 -12.32,7.322 -1.056,0.47623 -2.81093,1.27971 -3.89984,1.78551 -1.08891,0.5058 -2.08256,0.91964 -2.2081,0.91964 -0.12555,0 -1.03463,0.37509 -2.02017,0.83354 -0.98554,0.45844 -2.07989,0.94905 -2.43189,1.09023 -2.23684,0.89719 -3.46867,1.27623 -4.14759,1.27623 -0.42605,0 -0.85424,0.12879 -0.95152,0.2862 -0.20518,0.33198 -1.57145,0.5583 -6.34089,1.05035 -2.42441,0.25011 -3.44,0.47753 -3.44,0.77028 0,0.22847 0.14051,0.50224 0.31225,0.60838 0.17174,0.10614 0.84817,1.01464 1.50319,2.01889 0.99889,1.53145 3.95999,5.27449 4.60885,5.8259 0.10355,0.088 1.03683,1.384 2.07396,2.88 1.03712,1.496 1.99729,2.768 2.13371,2.82667 0.13642,0.0587 0.24804,0.38266 0.24804,0.72 0,0.33733 0.12991,0.61333 0.28869,0.61333 0.33751,0 1.0176,1.78704 0.77313,2.03151 -0.23172,0.23172 0.18824,0.84849 0.57774,0.84849 0.17699,0 0.99649,-0.27697 1.82112,-0.61548 z m -19.23299,-86.34452 c -0.0716,-0.132 -0.16158,-1.104 -0.20006,-2.16 -0.0758,-2.08047 -0.56574,-7.8385 -0.99379,-11.68 -0.14709,-1.32 -0.41116,-3.696 -0.58684,-5.28 -0.17567,-1.584 -0.42011,-3.348 -0.5432,-3.92 l -0.2238,-1.04 h 40.38156 40.38156 l -0.22432,0.70677 c -0.12337,0.38872 -0.34329,1.50472 -0.48871,2.48 -0.39409,2.64313 -0.83079,5.01334 -1.41744,7.69323 -0.28896,1.32 -0.60142,2.86934 -0.69437,3.44297 -0.0929,0.57363 -0.29709,1.12213 -0.45364,1.21888 -0.15656,0.0968 -0.28464,0.462 -0.28464,0.81166 0,0.34965 -0.34783,1.74515 -0.77295,3.10111 -0.42512,1.35596 -0.86364,3.00538 -0.9745,3.66538 l -0.20156,1.2 h -36.28661 c -19.95764,0 -36.34515,-0.108 -36.41669,-0.24 z M 62.570059,175.98368 c 2.81488,-2.86698 4.61682,-4.54706 6.88462,-6.41903 1.75886,-1.45185 6.09192,-4.83329 6.63876,-5.18076 0.27698,-0.176 0.69997,-0.5 0.93998,-0.72 0.24,-0.22 0.64208,-0.4 0.89351,-0.4 0.25143,0 0.45714,-0.11003 0.45714,-0.24451 0,-0.13448 0.576,-0.49405 1.28,-0.79905 1.17311,-0.50823 1.68344,-1.3096 0.99967,-1.56977 -0.72069,-0.27423 -4.54885,-7.07795 -5.86664,-10.42667 -0.22509,-0.572 -0.50132,-1.04 -0.61384,-1.04 -0.11252,0 -0.28005,-0.324 -0.37229,-0.72 -0.0922,-0.396 -0.54961,-1.728 -1.01638,-2.96 -0.46677,-1.232 -0.9241,-2.528 -1.0163,-2.88 -0.0922,-0.352 -0.28164,-0.928 -0.42098,-1.28 -0.25515,-0.64457 -0.93209,-3.56949 -1.60719,-6.94436 -0.59008,-2.9498 -0.50765,-13.3824 0.12969,-16.41564 0.29585,-1.408 0.67434,-2.81005 0.84109,-3.11566 0.16674,-0.30561 0.30317,-0.72755 0.30317,-0.93763 0,-0.66775 3.58806,-7.74585 4.45107,-8.78055 0.45592,-0.54661 1.40493,-1.75069 2.10893,-2.67573 1.50224,-1.97391 1.3283,-1.79 4.39846,-4.650429 4.66821,-4.349312 9.05639,-7.84 9.85575,-7.84 0.16819,0 0.30579,-0.134296 0.30579,-0.298435 0,-0.16414 0.28691,-0.389497 0.63757,-0.500793 0.35067,-0.111296 1.32897,-0.733 2.174,-1.381564 0.84504,-0.648564 1.81813,-1.333812 2.16243,-1.522773 2.45741,-1.348693 2.883751,-1.597294 3.026001,-1.76449 0.088,-0.103431 1.24,-0.741262 2.56,-1.417403 1.32,-0.676141 2.616,-1.398758 2.88,-1.605816 0.42919,-0.336615 6.41572,-3.565613 8.23751,-4.443122 0.39462,-0.190082 0.71862,-0.453604 0.72,-0.585604 0.001,-0.132 0.1739,-0.24 0.3834,-0.24 0.36406,0 1.45422,-0.506605 9.89547,-4.59849 2.044,-0.99083 3.79749,-1.80151 3.89663,-1.80151 0.0991,0 1.30677,-0.509953 2.68362,-1.13323 1.37686,-0.623276 2.79137,-1.259397 3.14337,-1.413602 0.352,-0.154205 1.504,-0.667343 2.56,-1.140306 1.056,-0.472964 2.28,-1.006385 2.72,-1.18538 0.44,-0.178996 1.18222,-0.523905 1.64937,-0.766464 0.46716,-0.24256 1.08111,-0.441018 1.36435,-0.441018 0.28323,0 0.76501,-0.132233 1.07062,-0.293851 0.91181,-0.482198 3.57362,-1.626149 3.78381,-1.626149 0.10732,0 0.72089,-0.230682 1.36349,-0.512627 0.6426,-0.281945 1.49236,-0.641945 1.88836,-0.8 0.75563,-0.301595 1.00684,-0.408335 4.03982,-1.71655 1.0339,-0.445953 2.1499,-0.810823 2.48,-0.810823 0.3301,0 0.60018,-0.144 0.60018,-0.32 0,-0.176 0.21795,-0.32 0.48434,-0.32 0.26639,0 0.73439,-0.131662 1.04,-0.292583 0.30561,-0.160922 1.34766,-0.604764 2.31566,-0.986317 1.90022,-0.749002 8.37775,-3.871041 8.64,-4.164307 0.088,-0.09841 1.024,-0.740103 2.08,-1.425992 1.056,-0.68589 2.56384,-1.760911 3.35076,-2.388936 0.78691,-0.628026 1.79491,-1.42321 2.24,-1.767076 1.45219,-1.121943 12.16924,-11.968436 12.16924,-12.316225 0,-0.18621 -0.18,-0.354591 -0.4,-0.374181 -0.22,-0.01959 -0.904,-0.09976 -1.52,-0.178156 -2.67699,-0.340693 -43.55057,-0.415986 -98.720001,-0.181852 -32.736,0.138929 -60.28439,0.137466 -61.21864,-0.0033 -0.93426,-0.140717 -1.82303,-0.178978 -1.97505,-0.08502 -0.33347,0.206097 2.3578,4.732946 3.59369,6.04476 0.484,0.513733 0.88,1.051858 0.88,1.195833 0,0.735176 5.87476,6.135339 9.11126,8.375197 5.72311,3.960796 11.85326,7.588155 12.82372,7.588155 0.11457,0 0.66206,0.195764 1.21666,0.43503 2.21371,0.955045 2.8983,1.190844 5.57975,1.921881 4.76567,1.29925 7.66478,1.576014 14.30861,1.365977 7.39109,-0.233661 10.3371,-0.587774 17.92,-2.153998 0.88,-0.181761 2.392,-0.450388 3.36,-0.596948 4.02482,-0.609379 10.124211,-1.717621 10.720001,-1.947795 0.65698,-0.253813 2.78034,-0.646655 6.72,-1.243271 5.00091,-0.757328 6.78016,-1.047776 8,-1.305932 7.25727,-1.535863 10.83859,-2.223023 10.95889,-2.102718 0.17893,0.178926 -3.02708,1.147774 -3.79808,1.147774 -0.30967,0 -0.65203,0.144 -0.76081,0.32 -0.10877,0.176 -0.61277,0.32 -1.12,0.32 -0.50722,0 -1.01122,0.144 -1.12,0.32 -0.10877,0.176 -0.55122,0.32 -0.98323,0.32 -0.432,0 -1.0355,0.129965 -1.34111,0.288812 -0.30561,0.158846 -1.13166,0.439986 -1.83566,0.624755 -2.48432,0.652023 -5.13123,1.364758 -6.08,1.637164 -3.09949,0.889907 -6.80789,2.034749 -7.36,2.272145 -0.352,0.151354 -1.864,0.651958 -3.36,1.112453 -1.496,0.460495 -2.97004,0.96943 -3.27565,1.130967 -0.30562,0.161537 -0.775571,0.293704 -1.044351,0.293704 -0.26877,0 -0.73873,0.140898 -1.04434,0.313107 -0.30561,0.172209 -1.41966,0.593781 -2.47566,0.936827 -2.46079,0.799399 -8.67153,3.023939 -9.92,3.553106 -1.72027,0.729148 -2.81035,1.181631 -7.68,3.187906 -6.59797,2.71834 -13.84507,6.140673 -18.4,8.689125 -2.87739,1.609879 -10.02836,6.089059 -10.74062,6.727642 -0.36335,0.325758 -0.73749,0.592287 -0.83143,0.592287 -0.0939,0 -0.87193,0.612 -1.72887,1.36 -4.96855,4.336908 -7.20896,6.845172 -8.9321,10 -0.48065,0.88 -0.97314,1.744 -1.09442,1.92 -0.40304,0.58489 -1.28089,3.550159 -2.321,7.839999 -0.54206,2.23569 -0.5224,13.88291 0.0292,17.28 0.21432,1.32 0.61306,3.768 0.88609,5.44 0.42244,2.58701 1.1109,5.57081 2.32576,10.08 1.29692,4.81377 2.00514,7.05212 2.74901,8.68836 0.25213,0.5546 0.45843,1.15299 0.45843,1.32976 0,0.17677 0.30844,0.94701 0.68543,1.71164 0.65053,1.31942 0.88795,1.8822 1.4978,3.55024 0.87026,2.3803 5.9407,11.27056 7.92691,13.89865 0.42342,0.56026 0.76985,1.17226 0.76985,1.36 0,0.18774 0.144,0.34135 0.32,0.34135 0.176,0 0.32,0.16241 0.32,0.36092 0,0.1985 0.97458,1.5305 2.16573,2.96 1.19115,1.42949 2.72708,3.42708 3.41319,4.43908 0.6861,1.012 1.33153,1.8399 1.43427,1.83979 0.10275,-1.2e-4 1.49451,-1.33212 3.09281,-2.96 z M 132.40407,50.725295 c 0.231,-0.09244 0.507,-0.08107 0.61334,0.02526 0.10633,0.106333 -0.0827,0.181965 -0.42,0.16807 -0.37279,-0.01535 -0.44861,-0.09118 -0.19334,-0.193333 z m 83.73936,39.899629 c 0.21828,-0.353191 3.50735,-1.921033 4.02999,-1.921033 0.365,0 3.28338,-0.868418 4.29065,-1.276763 0.352,-0.1427 1.32243,-0.561805 2.15651,-0.931345 0.83408,-0.369541 1.57957,-0.671892 1.65663,-0.671892 0.0771,0 1.23124,-0.504 2.56484,-1.12 1.3336,-0.616 2.51411,-1.12 2.62336,-1.12 0.18132,0 2.39595,-0.920313 5.23866,-2.176985 0.616,-0.272315 2.01194,-0.808055 3.1021,-1.190534 1.09015,-0.382479 2.34508,-0.933256 2.78874,-1.223948 0.44365,-0.290693 0.94404,-0.528533 1.11197,-0.528533 0.16793,0 0.71299,-0.203668 1.21125,-0.452596 0.49827,-0.248928 1.55394,-0.73783 2.34594,-1.086449 0.792,-0.348619 2.592,-1.17013 4,-1.82558 1.408,-0.655451 2.884,-1.318549 3.28,-1.473551 0.396,-0.155003 1.044,-0.408585 1.44,-0.563515 0.396,-0.15493 1.368,-0.535354 2.16,-0.845386 0.792,-0.310032 2.33725,-0.978321 3.43389,-1.485087 2.66211,-1.230182 3.69301,-1.415221 4.33087,-0.777359 0.28024,0.280238 0.73581,0.509523 1.01238,0.509523 0.27657,0 0.50286,0.110031 0.50286,0.244512 0,0.134482 0.54,0.501747 1.2,0.816144 1.3812,0.657949 1.59865,0.784859 5.03645,2.939344 4.23299,2.652831 5.58249,3.358251 12.32355,6.441807 1.32,0.603807 2.65004,1.237412 2.95565,1.408012 0.30562,0.1706 0.70232,0.310181 0.88157,0.310181 0.17925,0 1.07216,0.36 1.98423,0.8 0.91208,0.44 1.91087,0.8 2.21955,0.8 0.30867,0 0.63959,0.126807 0.73538,0.281792 0.0958,0.154985 0.50029,0.356911 0.89889,0.448723 2.04328,0.470646 5.56191,1.587571 5.82873,1.850225 0.1672,0.164593 0.56515,0.29926 0.88434,0.29926 0.31919,0 0.83039,0.131989 1.136,0.293308 0.30561,0.161319 1.03839,0.472891 1.62839,0.692382 0.59001,0.219491 1.46394,0.81766 1.94207,1.329264 l 0.86934,0.930188 1.48347,-1.327735 c 2.4598,-2.20157 2.79813,-3.946042 3.28881,-16.957407 0.083,-2.2 0.28785,-4.72 0.4553,-5.6 0.16745,-0.88 0.37663,-2.779288 0.46486,-4.220641 0.24391,-3.985049 1.09244,-8.705616 1.8146,-10.095017 0.15885,-0.305612 0.28881,-0.909113 0.28881,-1.341114 0,-0.432001 0.12768,-0.864365 0.28373,-0.960808 0.15605,-0.09644 0.3819,-0.698669 0.50189,-1.33828 0.11999,-0.639611 0.34342,-1.397201 0.49652,-1.683534 0.15309,-0.286333 0.95435,-1.888606 1.78058,-3.560606 0.82623,-1.672 1.91513,-3.641945 2.41976,-4.377656 1.0181,-1.484285 1.17326,-2.342344 0.42356,-2.342344 -0.27168,0 -0.88368,-0.367596 -1.36,-0.816881 -0.83847,-0.790884 -7.41413,-5.247556 -8.38604,-5.683663 -0.5557,-0.24935 -1.68638,-0.944999 -1.92,-1.181276 -0.54351,-0.549696 -2.67164,-1.959329 -4.28778,-2.840134 -1.03827,-0.565871 -2.83827,-1.642721 -4,-2.393 -1.16172,-0.750279 -3.14074,-1.925698 -4.39782,-2.612042 l -2.28561,-1.247897 -3.15439,0.390533 c -3.68919,0.456745 -21.08704,0.514569 -22.97673,0.07637 -1.71444,-0.397565 -1.92228,-0.165504 -1.08667,1.213332 0.39154,0.646064 0.86423,1.462662 1.05044,1.814662 0.18621,0.352 0.42149,0.712 0.52284,0.8 0.10135,0.088 0.53798,0.687271 0.9703,1.331712 2.54741,3.797349 8.19276,9.09857 11.80543,11.085785 0.616,0.338843 1.66,0.923523 2.32,1.29929 0.66,0.375767 1.67774,0.954004 2.26164,1.284971 0.58391,0.330966 1.55118,0.709277 2.1495,0.840689 1.75045,0.384465 3.02579,1.437553 1.74094,1.437553 -0.54702,0 -1.06442,1.093768 -1.4759,3.12 -0.1519,0.748 -0.41245,1.972 -0.57899,2.72 -0.5568,2.5008 -0.63998,2.944907 -1.12379,6 -0.26478,1.672 -0.505,4.012 -0.53382,5.2 -0.0288,1.188 -0.18929,2.16 -0.3566,2.16 -0.1673,0 -0.68642,-0.259786 -1.15359,-0.577302 -0.74407,-0.505715 -1.43849,-0.822833 -4.36939,-1.995348 -3.6827,-1.473271 -6.59222,-2.289525 -10.24,-2.872791 -5.20705,-0.832585 -7.98641,-1.527788 -9.71611,-2.430299 -0.46414,-0.242174 -1.09298,-0.441204 -1.39742,-0.442288 -1.02262,-0.0036 -4.70889,1.504947 -11.10151,4.543248 -2.18626,1.039095 -5.13826,2.321489 -6.56,2.849764 -1.42173,0.528275 -3.01696,1.148862 -3.54496,1.379084 l -0.96,0.418584 -1.49039,-3.076326 c -1.91239,-3.947395 -2.82961,-6.029093 -2.82961,-6.421982 0,-0.304392 -0.19203,-0.783941 -1.57402,-3.930856 -0.36629,-0.834082 -0.66598,-1.725584 -0.66598,-1.981115 0,-0.255531 -0.12805,-0.54374 -0.28455,-0.640464 -0.15651,-0.09672 -0.37924,-0.553113 -0.49496,-1.014198 -0.11573,-0.461085 -0.50843,-1.506445 -0.87269,-2.323023 -0.36425,-0.816582 -0.87995,-1.988692 -1.14599,-2.604692 -1.6407,-3.798866 -4.60811,-10.002353 -4.89826,-10.24 -0.10744,-0.088 -0.69966,-1.096 -1.31604,-2.24 -0.61637,-1.144 -1.64872,-2.901083 -2.2941,-3.904628 -0.64538,-1.003546 -1.17341,-1.914838 -1.17341,-2.025094 0,-0.110257 -0.59312,-0.78769 -1.31805,-1.505409 l -1.31805,-1.304942 -7.40195,0.2093 c -4.07107,0.115115 -9.23795,0.209632 -11.48195,0.210037 -3.77771,6.82e-4 -4.08,0.04525 -4.08,0.601554 0,0.330449 0.21815,0.781863 0.48477,1.003141 0.41916,0.347869 4.63523,8.612758 4.63523,9.086573 0,0.09539 0.432,1.116653 0.96,2.269468 0.528,1.152815 0.96,2.299923 0.96,2.549128 0,0.249206 0.12018,0.527375 0.26706,0.618154 0.14688,0.09078 1.31639,3.375278 2.59889,7.298886 1.28251,3.923608 2.4438,7.421832 2.58065,7.773832 0.36005,0.926144 0.80024,2.295195 1.44044,4.48 0.30944,1.056 0.68075,2.208 0.82513,2.56 0.58893,1.435747 1.88783,5.781026 1.88783,6.315465 0,0.315271 0.1272,0.823265 0.28266,1.128877 0.59285,1.165412 0.95944,2.189604 1.11518,3.115658 0.0888,0.528 0.46532,2.544 0.83673,4.48 1.08425,5.651824 1.23812,6.563238 1.62077,9.6 0.33084,2.625542 0.30193,3.105526 -0.32723,5.432532 -0.37958,1.403892 -0.83708,2.729584 -1.01667,2.945982 -0.1796,0.216398 -0.23364,0.543759 -0.1201,0.727469 0.26302,0.425579 1.98717,0.437122 2.24802,0.01505 z"
       id="path40" />
    <path
       style="fill:#223d78;fill-opacity:1;stroke:#000000;stroke-width:2;stroke-dasharray:none;stroke-opacity:1"
       d="m 211.7174,268.65056 c -0.33196,-0.33196 -0.25082,-1.38667 0.10667,-1.38667 0.176,0 0.32,0.36 0.32,0.8 0,0.83778 -0.0739,0.93942 -0.42667,0.58667 z"
       id="path39" />
    <path
       style="fill:#223d78;fill-opacity:1;stroke:#000000;stroke-width:2;stroke-dasharray:none;stroke-opacity:1"
       d="m 151.12256,276.29641 -5.50152,-0.0875 -0.18865,-1.35253 c -0.19288,-1.38282 -0.18187,-2.7158 0.07,-8.47402 l 0.14351,-3.28149 32.84911,0.0815 32.8491,0.0815 -0.11657,6.4 c -0.0641,3.52 -0.13611,6.41999 -0.16,6.44441 -0.0957,0.0979 -54.81873,0.26962 -59.94494,0.18811 z"
       id="path38" />
    <path
       style="fill:#223d78;fill-opacity:1;stroke:#000000;stroke-width:2;stroke-dasharray:none;stroke-opacity:1"
       d="m 276.78407,289.04278 c 0,-0.16562 0.144,-0.39011 0.32,-0.49889 0.176,-0.10877 0.32,0.0267 0.32,0.30112 0,0.27438 -0.144,0.49888 -0.32,0.49888 -0.176,0 -0.32,-0.1355 -0.32,-0.30111 z"
       id="path37" />
    <path
       style="fill:#223d78;fill-opacity:1;stroke:#000000;stroke-width:2;stroke-dasharray:none;stroke-opacity:1"
       d="m 277.17831,297.98389 c 0,-0.616 0.0659,-0.868 0.14634,-0.56 0.0805,0.308 0.0805,0.812 0,1.12 -0.0805,0.308 -0.14634,0.056 -0.14634,-0.56 z"
       id="path36" />
    <path
       style="fill:#223d78;fill-opacity:1;stroke:#000000;stroke-width:2;stroke-dasharray:none;stroke-opacity:1"
       d="m 217.58407,291.34178 c 0,-4.53316 -0.13395,-8.70916 -0.29766,-9.28 -0.18355,-0.64 -0.18355,-1.03789 0,-1.03789 0.42007,0 0.36968,-3.40814 -0.09,-6.08893 -0.30358,-1.77036 -0.30358,-2.39549 0,-2.8816 0.21323,-0.34143 0.38769,-1.55874 0.38769,-2.70513 v -2.08434 l 2.32,-0.0163 c 1.276,-0.009 5.56877,-0.002 9.5395,0.0151 3.99651,0.0174 7.58551,-0.10775 8.03937,-0.28031 0.52313,-0.19889 0.93092,-0.20066 1.1267,-0.005 0.19033,0.19032 5.46109,0.2569 13.88063,0.17533 7.46559,-0.0723 13.8618,-0.11898 14.2138,-0.10367 0.352,0.0153 2.78635,0.0339 5.40966,0.0413 l 4.76966,0.0135 -0.26714,12.8 c -0.14693,7.04 -0.27728,14.348 -0.28967,16.24 l -0.0225,3.44 h -29.36 -29.36 z m 19.69638,-2.7076 c 0.16332,-0.16332 0.77958,-9.28865 0.63829,-9.45152 -0.31423,-0.36222 -4.27398,-0.72431 -7.10702,-0.64988 l -3.46765,0.0911 -0.0889,4.78594 c -0.0489,2.63227 -0.01,4.99174 0.0866,5.24327 0.14505,0.378 1.00767,0.43062 4.97298,0.30334 2.63863,-0.0847 4.87322,-0.22971 4.96577,-0.32226 z m 25.44421,0.0438 2.21941,-0.39663 v -4.58871 -4.58875 h -4.27534 c -2.35144,0 -4.94729,-0.0921 -5.76858,-0.20467 l -1.49323,-0.20467 0.0886,4.92187 0.0886,4.92188 0.94377,0.16279 c 2.09839,0.36197 6.10539,0.35069 8.19682,-0.0231 z"
       id="path35" />
    <path
       style="fill:#223d78;fill-opacity:1;stroke:#000000;stroke-width:2;stroke-dasharray:none;stroke-opacity:1"
       d="m 121.50407,305.13196 c 0.22,-0.0888 0.58,-0.0888 0.8,0 0.22,0.0888 0.04,0.16141 -0.4,0.16141 -0.44,0 -0.62,-0.0726 -0.4,-0.16141 z"
       id="path34" />
    <path
       style="fill:#223d78;fill-opacity:1;stroke:#000000;stroke-width:2;stroke-dasharray:none;stroke-opacity:1"
       d="m 152.66761,329.90389 c -0.1289,-14.17279 0,-42.47948 0,-42.47948 h 54.35642 v 21.32354 21.23594 h -26.88 c -14.784,0 -27.45732,-0.036 -27.47642,-0.08 z m 42.43052,-14.33425 v -5.22957 -4.89531 h -1.83464 c -2.53172,-0.26461 -28.69484,-0.21428 -29.25325,0 v 5.00002 5.12486 c 0.24401,0.244 30.85735,0.37302 31.08789,0 z"
       id="path32" />
    <path
       style="fill:#c40000;fill-opacity:1;stroke:#000000;stroke-width:2;stroke-dasharray:none;stroke-opacity:1"
       d="m 310.70406,352.71489 c -6.5938,-0.92223 -10.76399,-1.80533 -12.95999,-2.74446 -5.45825,-2.33426 -7.39533,-3.73566 -9.2701,-6.70654 -1.03209,-1.63549 -1.7699,-3.68948 -1.7699,-4.92717 0,-0.3811 -0.21518,-0.77548 -0.47817,-0.8764 -0.26299,-0.10092 -0.39774,-0.31361 -0.29945,-0.47264 0.0983,-0.15904 0.22032,-8.50361 0.27119,-18.54351 0.0557,-10.9834 0.21371,-18.37556 0.39682,-18.55867 0.19242,-0.19243 0.88622,-0.13724 1.88696,0.15011 0.87046,0.24993 2.23065,0.55574 3.02265,0.67957 2.74051,0.42849 4.56576,1.34508 5.66579,2.84522 0.56419,0.7694 1.1148,1.75349 1.22357,2.18688 0.31988,1.27449 2.02011,3.08263 3.8921,4.13911 1.81062,1.02185 3.20986,2.6592 5.24152,6.13346 0.60336,1.03178 1.27701,1.94718 1.49701,2.03424 0.22,0.087 0.4,0.30222 0.4,0.47815 0,0.41707 10.29218,10.81388 11.80096,11.92093 5.72931,4.20381 9.73418,6.60688 12.22051,7.33275 0.42819,0.12501 1.57053,0.45657 2.53853,0.73679 2.21364,0.64082 6.96477,0.70295 9.28,0.12135 2.98965,-0.75101 10.63675,-4.68204 10.81704,-5.56056 0.0738,-0.35989 -0.3847,-0.52608 -1.92,-0.69583 -3.02011,-0.33392 -6.06496,-1.91336 -8.55751,-4.43898 -1.13327,-1.1483 -2.17004,-2.0201 -2.30395,-1.93734 -0.25223,0.15588 -0.98574,-0.96925 -0.77278,-1.18538 0.14886,-0.15109 -5.16576,-7.07346 -7.01111,-9.1321 -0.18243,-0.2035 -1.62262,-1.9675 -3.20042,-3.92 -1.5778,-1.95249 -3.0538,-3.54998 -3.28,-3.54998 -0.2262,0 -0.41585,-0.252 -0.42144,-0.56 -0.0151,-0.82928 -0.84078,-1.78516 -1.29798,-1.5026 -0.24897,0.15387 -0.30831,0.10813 -0.16357,-0.12607 0.18261,-0.29547 -0.95492,-2.21266 -1.73925,-2.93133 -0.096,-0.088 -1.41231,-1.744 -2.92503,-3.68 -1.51273,-1.936 -3.12697,-3.92342 -3.58721,-4.41649 -0.46023,-0.49306 -0.83679,-0.99853 -0.83679,-1.12327 0,-0.12473 -0.324,-0.58659 -0.72,-1.02635 -0.396,-0.43977 -1.2931,-1.5183 -1.99357,-2.39673 -0.70046,-0.87844 -1.6718,-2.02916 -2.15852,-2.55716 -0.48672,-0.528 -0.88561,-1.05771 -0.88642,-1.17714 -8.2e-4,-0.11943 -0.18446,-0.40743 -0.40809,-0.64 -0.22363,-0.23257 -0.97963,-1.1358 -1.68,-2.00718 -0.70037,-0.87138 -1.65963,-2.02338 -2.13169,-2.56 -2.21775,-2.52106 -4.09628,-4.8381 -4.09886,-5.05568 -0.002,-0.132 -0.21884,-0.24 -0.48284,-0.24 -0.264,0 -0.48,-0.20294 -0.48,-0.45099 0,-0.40218 -1.14858,-1.89367 -5.05564,-6.56507 -2.44404,-2.92217 -3.20329,-4.05417 -3.4256,-5.10735 l -0.22868,-1.08341 8.59496,0.19846 c 4.72722,0.10915 10.17895,0.36246 12.11495,0.56291 1.936,0.20045 4.26274,0.40198 5.17052,0.44785 0.90779,0.0459 1.77179,0.15807 1.92,0.24934 0.14822,0.0913 0.98948,0.27102 1.86948,0.39945 0.88,0.12843 2.536,0.55371 3.68,0.94507 1.144,0.39135 2.728,0.9041 3.52,1.13943 3.65122,1.08492 9.37562,4.25668 12.9426,7.1712 2.51726,2.05681 7.92095,7.74796 9.05249,9.53403 0.5693,0.89861 1.71942,2.97602 2.55582,4.61646 0.87262,1.71147 1.72027,2.98262 1.98891,2.98262 0.34623,0 0.3746,0.0936 0.10893,0.35926 -0.25691,0.2569 -0.26379,0.59877 -0.0242,1.2 0.18431,0.46241 0.44958,1.12874 0.58949,1.48074 0.48369,1.21688 1.66876,6.08709 1.94664,8 0.88852,6.11653 1.05828,8.18522 1.06355,12.96 0.006,5.22201 -0.43351,10.8192 -1.09246,13.92 -1.33923,6.30202 -3.01714,8.95979 -8.71876,13.81035 -2.53808,2.15924 -7.04821,5.22965 -7.68182,5.22965 -0.14201,0 -0.86863,0.27589 -1.61471,0.61309 -0.74609,0.3372 -1.9003,0.7995 -2.56492,1.02733 -0.75371,0.25836 -1.14881,0.56951 -1.05004,0.8269 0.0871,0.22698 0.0309,0.41268 -0.12493,0.41268 -0.15581,0 -0.34078,-0.17245 -0.41104,-0.38323 -0.0959,-0.28762 -0.36197,-0.29688 -1.06666,-0.0371 -1.2703,0.46827 -3.14108,0.94564 -5.25893,1.34193 -0.968,0.18113 -2.624,0.49611 -3.68,0.69995 -3.47296,0.67038 -12.61094,0.66486 -17.44,-0.0105 z"
       id="path30" />
    <path
       style="fill:#223d78;fill-opacity:1;stroke:#000000;stroke-width:2;stroke-dasharray:none;stroke-opacity:1"
       d="m 174.82949,354.06392 -31.07458,-0.0832 -0.20542,-1.96537 c -0.11298,-1.08095 -0.20542,-2.79974 -0.20542,-3.81953 0,-1.0198 -0.12407,-1.93086 -0.2757,-2.02457 -0.26585,-0.1643 -0.218,-1.28853 0.16005,-3.76056 l 0.17941,-1.17319 1.96812,-0.16572 c 1.79617,-0.15125 57.76802,-0.25288 60.36812,-0.10962 l 1.12,0.0617 0.0865,6.64 c 0.0807,6.19677 0.0487,6.63477 -0.48,6.5616 -0.31157,-0.0431 -14.55005,-0.11582 -31.64107,-0.16157 z"
       id="path29" />
    <path
       style="fill:#223d78;fill-opacity:1;stroke:#000000;stroke-width:2;stroke-dasharray:none;stroke-opacity:1"
       d="m 221.93032,354.44428 c -1.21756,-0.60521 -2.69356,-1.10039 -3.28,-1.10039 h -1.06625 l 4.4e-4,-7.92 c 2.4e-4,-4.356 -0.16997,-10.20149 -0.37824,-12.98999 -0.29135,-3.90061 -0.29145,-5.20969 -4.5e-4,-5.67566 0.47234,-0.75632 0.52483,-7.65435 0.0583,-7.65435 -0.176,0 -0.32,-0.2795 -0.32,-0.62111 0,-0.34162 0.144,-0.71011 0.32,-0.81889 0.19168,-0.11846 0.32,-2.24332 0.32,-5.29888 v -5.10112 l 29.68,-1.2e-4 29.68,-1.3e-4 -0.0732,18.48013 c -0.0403,10.16407 -0.16344,20.67612 -0.27369,23.36012 l -0.20048,4.88 h -11.18734 c -7.78165,0 -11.39547,0.11139 -11.87101,0.36589 -0.51294,0.27452 -0.71413,0.27452 -0.80563,0 -0.0856,-0.25674 -1.8688,-0.36589 -5.97798,-0.36589 -5.80239,0 -5.85777,-0.007 -6.04896,-0.72 -0.10612,-0.396 -0.19492,-8.244 -0.19732,-17.44 l -0.004,-16.72 h -4.01702 -4.01702 l 0.097,7.20036 c 0.0534,3.9602 -0.004,7.2362 -0.12744,7.28 -0.12346,0.0438 -0.3085,1.08764 -0.4112,2.31964 -0.18599,2.2311 -0.61426,4.85243 -1.10548,6.76631 -0.14205,0.55347 -0.14278,1.19318 -0.002,1.42158 0.14893,0.24096 0.0851,0.55733 -0.15204,0.75369 -0.22478,0.18613 -0.65486,1.15068 -0.95573,2.14345 -0.59294,1.95652 -2.80715,6.48322 -3.42156,6.99497 -0.10565,0.088 -0.36272,0.484 -0.57126,0.88 -0.50179,0.95287 -1.05605,0.88985 -3.69039,-0.41961 z m 41.59611,-12.75717 c 0.74808,-0.54701 1.05585,-4.67028 1.07965,-14.46404 0.0137,-5.6524 -0.0791,-7.48137 -0.39287,-7.74179 -0.47241,-0.39207 -6.68534,-0.35812 -6.97761,0.0381 -0.24258,0.32886 -0.0763,21.15023 0.17521,21.94273 0.16477,0.51913 0.54353,0.60065 2.87056,0.61783 1.71233,0.0126 2.8846,-0.12927 3.24506,-0.39285 z"
       id="path28" />
    <path
       style="fill:#223d78;fill-opacity:1;stroke:#000000;stroke-width:2;stroke-dasharray:none;stroke-opacity:1"
       d="m 96.304069,355.4436 c 0,-1.15716 -2.54055,-5.08569 -5.70147,-8.81638 l -1.70147,-2.00816 1.86147,-0.61393 c 2.61922,-0.86385 4.98973,-2.00493 7.09391,-3.41478 3.417001,-2.28945 7.558991,-5.18269 8.209141,-5.7342 0.35808,-0.30374 1.22421,-0.97003 1.92474,-1.48064 2.03009,-1.47973 9.43368,-9.30942 9.43368,-9.97663 0,-0.0977 0.34804,-0.63608 0.77342,-1.19634 0.87608,-1.15388 2.85292,-4.61866 3.5937,-6.29865 0.27163,-0.616 0.68979,-1.552 0.92926,-2.08 0.86225,-1.90114 2.69892,-7.69811 2.70124,-8.52577 l 0.002,-0.84577 -9.84,-0.12808 c -5.412,-0.0704 -10.08032,-0.0721 -10.37404,-0.004 -0.40516,0.0944 -0.57118,0.59969 -0.6879,2.09385 -0.19104,2.44565 -0.38022,3.4585 -0.79193,4.23999 -0.1766,0.33521 -0.71664,1.68947 -1.2001,3.00947 -0.48345,1.32 -1.01972,2.58 -1.1917,2.8 -0.20962,0.26815 -0.19429,0.4 0.0465,0.4 0.19755,0 0.35918,0.156 0.35918,0.34667 0,0.19067 -0.17504,0.28832 -0.38898,0.217 -0.36281,-0.12093 -1.851021,1.71294 -1.851021,2.28095 0,0.1409 -0.288,0.51683 -0.64,0.83538 -0.352,0.31856 -0.64,0.83638 -0.64,1.15071 0,1.02971 -0.53644,0.94501 -3.4067,-0.53791 -3.49892,-1.8077 -3.57795,-1.88096 -2.99976,-2.78079 1.00284,-1.56069 2.95708,-5.85924 3.11989,-6.86249 0.0951,-0.58578 0.29743,-1.14206 0.4497,-1.23617 0.15228,-0.0941 0.27687,-0.70982 0.27687,-1.36823 0,-0.65842 0.12132,-1.33392 0.26959,-1.50112 0.28304,-0.31917 0.96023,-5.25919 1.09281,-7.9719 l 0.0776,-1.58791 -1.28,-0.23365 c -0.704,-0.12851 -7.403406,-0.19815 -9.64678,-0.2521 v -0.0984 -2.96 -3.21073 -3.66927 0 c 5.05803,0 10.43902,-0.0274 10.79126,-0.68559 0.26265,-0.49076 0.33405,-3.92366 0.25126,-12.08 l -0.11537,-11.39414 h 13.333651 c 7.33351,0 13.44454,0.11103 13.58007,0.24674 0.13553,0.1357 0.22033,1.45979 0.18845,2.94241 -0.036,1.67622 0.0752,2.77796 0.2941,2.91326 0.2526,0.15612 0.24706,0.28249 -0.0196,0.44731 -0.21351,0.13195 -0.45277,1.48134 -0.56223,3.17082 -0.1048,1.61761 -0.29528,3.00583 -0.42328,3.08495 -0.12801,0.0791 -3.92238,0.15369 -8.43194,0.16572 l -8.19919,0.0219 v 5.22877 5.22876 l 0.88,0.24432 c 0.484,0.13438 8.17999,0.20974 17.10219,0.16748 8.92221,-0.0423 16.51821,0.0171 16.88,0.13193 0.58602,0.18599 0.65781,0.46836 0.65781,2.58722 0,1.63656 0.11978,2.37843 0.384,2.37843 0.29867,0 0.29867,0.0853 0,0.384 -0.2112,0.2112 -0.38318,0.8952 -0.38218,1.52 0.001,0.6248 -0.17029,2.62377 -0.38065,4.44214 -0.28273,2.44397 -0.28918,3.45552 -0.0247,3.87894 0.20418,0.32695 0.23769,0.69342 0.0781,0.85386 -0.15381,0.15458 -0.42413,1.64906 -0.60072,3.32106 -0.17659,1.672 -0.48685,3.904 -0.68948,4.96 -0.20263,1.056 -0.38656,2.28 -0.40873,2.72 -0.0222,0.44 -0.22374,0.99029 -0.44793,1.22286 -0.22419,0.23257 -0.40762,0.81577 -0.40762,1.296 0,0.48023 -0.1374,1.01055 -0.30535,1.17849 -0.16794,0.16794 -0.34794,0.95274 -0.4,1.744 -0.0521,0.79126 -0.2453,1.58265 -0.42944,1.75865 -0.18413,0.176 -0.51765,0.896 -0.74115,1.6 -0.55671,1.75359 -0.65171,1.96983 -3.04554,6.93246 -1.16003,2.40485 -2.29126,4.56749 -2.51383,4.80586 -0.89411,0.95755 -1.55939,2.53068 -1.36408,3.22551 0.15313,0.54473 0.12386,0.60349 -0.12225,0.24544 -0.17796,-0.2589 -0.37577,-0.4029 -0.43959,-0.32 -0.0638,0.0829 -0.93469,1.25473 -1.93528,2.60406 -1.73265,2.33655 -4.83154,5.38667 -5.47279,5.38667 -0.16517,0 -0.52764,0.20139 -0.8055,0.44753 -1.1627,1.02997 -7.11244,4.03247 -7.99073,4.03247 -0.30056,0 -0.68327,0.12027 -0.85047,0.26727 -0.1672,0.147 -1.6,0.66867 -3.184,1.15925 -1.584,0.49059 -3.51931,1.09788 -4.30069,1.34954 -0.78137,0.25166 -2.7649,0.80681 -4.40783,1.23368 -1.642931,0.42687 -3.262151,0.92331 -3.598271,1.10319 -0.84875,0.45424 -1.29321,0.40845 -1.29321,-0.13322 z"
       id="path27" />
    <path
       style="fill:#223d78;fill-opacity:1;stroke:#000000;stroke-width:2;stroke-dasharray:none;stroke-opacity:1"
       d="m 16.197409,358.25056 c -0.11734,-0.11733 -0.21334,-0.51591 -0.21334,-0.88572 0,-0.36981 -0.38909,-1.24581 -0.86465,-1.94667 -1.1146,-1.64265 -5.4736001,-6.17155 -6.1451801,-6.3847 -0.28374,-0.0901 -0.6586,-0.4865 -0.83303,-0.88098 -0.17442,-0.39448 -0.67714,-0.89767 -1.11714,-1.1182 -0.44,-0.22053 -0.66908,-0.40309 -0.50907,-0.40568 0.36601,-0.006 -1.99114,-2.32686 -2.84433,-2.8006 -0.59477,-0.33027 -0.54308,-0.43623 0.84786,-1.73791 2.22822,-2.08523 5.5593201,-5.04987 7.4902201,-6.66621 1.61568,-1.35246 5.71395,-6.01589 5.97496,-6.7989 0.19077,-0.57233 1.01146,-0.0755 1.51996,0.92015 0.25808,0.50531 0.82104,1.20675 1.25104,1.55875 2.38617,1.95337 5.27076,4.4949 7.38936,6.51057 1.32,1.25586 2.91732,2.53675 3.54959,2.84641 1.29708,0.63525 2.04399,1.80316 1.45549,2.27587 -0.20079,0.16129 -0.81896,0.39022 -1.37371,0.50874 -1.80868,0.38641 -9.71137,6.9709 -9.71137,8.09148 0,0.22381 -0.18182,0.40693 -0.40405,0.40693 -0.22222,0 -0.69022,0.38468 -1.04,0.85485 -0.34977,0.47017 -1.17903,1.51417 -1.84281,2.32 -0.66377,0.80583 -1.3767,1.93315 -1.58428,2.50515 -0.37829,1.0424 -0.59765,1.22454 -0.99552,0.82667 z"
       id="path26" />
    <path
       style="fill:#223d78;fill-opacity:1;stroke:#000000;stroke-width:2;stroke-dasharray:none;stroke-opacity:1"
       d="m 48.521659,357.74389 c -1.10365,-1.86868 -3.08947,-4.12278 -3.4408,-3.90565 -0.1592,0.0984 -0.21462,-0.0161 -0.12315,-0.25449 0.0915,-0.23837 -0.30016,-1.00185 -0.87029,-1.69662 -1.06051,-1.29238 -6.73645,-6.98699 -7.76193,-7.78746 -0.51962,-0.40561 -0.33665,-0.5943 2.10475,-2.17065 1.47061,-0.94953 3.24983,-2.21339 3.95383,-2.80859 0.704,-0.59519 1.89494,-1.58947 2.64652,-2.20951 5.83309,-4.81212 10.63348,-10.03232 10.63348,-11.56341 0,-0.26599 0.19944,-0.48362 0.4432,-0.48362 0.39418,0 0.90092,-0.59155 1.95292,-2.27975 0.17813,-0.28587 0.86388,-1.33266 1.52388,-2.32622 0.66,-0.99355 1.2,-1.87852 1.2,-1.9666 0,-0.0881 0.36,-0.73042 0.8,-1.42743 0.44,-0.697 0.8,-1.48614 0.8,-1.75364 0,-0.2675 0.144,-0.48636 0.32,-0.48636 0.176,0 0.32,-0.36 0.32,-0.8 0,-0.44 0.12721,-0.8 0.28268,-0.8 0.15547,0 0.36631,-0.252 0.46852,-0.56 0.10221,-0.308 0.41111,-1.136 0.68645,-1.84 2.19053,-5.60085 3.79617,-11.49574 4.82522,-17.71517 l 0.23084,-1.39517 -9.65853,0.11517 c -8.01031,0.0955 -9.70754,0.19448 -9.94574,0.57989 -0.15796,0.2556 -0.22202,0.57021 -0.14234,0.69913 0.0797,0.12892 -0.16689,0.92779 -0.54794,1.77528 -0.38104,0.84748 -0.80105,1.82887 -0.93336,2.18087 -0.92311,2.45603 -2.54469,5.92559 -3.23862,6.9294 -0.32295,0.46717 -0.58718,0.99527 -0.58718,1.17356 0,0.9934 -4.38996,7.56589 -6.80954,10.195 l -1.23134,1.33796 0.384,1.95182 c 0.2112,1.0735 0.3284,1.99605 0.26044,2.05011 -0.068,0.0541 -1.56356,0.30166 -3.32356,0.55022 -2.28384,0.32254 -5.74234,0.42758 -12.08,0.36687 l -8.88,-0.0851 v -1.11928 c 0,-0.61561 -0.13108,-1.36933 -0.29129,-1.67494 -0.16021,-0.30561 -0.68801,-1.85166 -1.17288,-3.43566 -0.48488,-1.584 -1.20779,-3.60489 -1.6064701,-4.49086 -0.95572,-2.12389 -1.72451,-4.37809 -1.57541,-4.61934 0.0657,-0.10625 1.01177,-0.22843 2.1024601,-0.2715 1.09069,-0.0431 2.24372,-0.21781 2.5623,-0.38831 0.31857,-0.17049 1.01219,-0.30999 1.54137,-0.30999 0.52918,0 1.05115,-0.144 1.15992,-0.32 0.10878,-0.176 0.54078,-0.32 0.96,-0.32 0.41923,0 0.84137,-0.12805 0.93809,-0.28455 0.0967,-0.1565 0.54106,-0.37621 0.98741,-0.48823 1.68994,-0.42415 4.33305,-1.81833 4.11526,-2.17071 -0.13525,-0.21884 -0.0735,-0.26505 0.1608,-0.12027 0.64131,0.39635 6.43886,-3.72546 8.93255,-6.35066 1.26824,-1.33513 2.30589,-2.63592 2.30589,-2.89064 0,-0.25473 0.18,-0.57829 0.4,-0.71904 0.68134,-0.43589 1.89944,-2.35946 1.74641,-2.75785 -0.10684,-0.27815 -3.00975,-0.39981 -10.98581,-0.46042 -5.96233,-0.0453 -12.3166,-0.1705 -14.1206,-0.27822 L 7.6640689,287.6674 v -7.95884 -7.95884 l 16.2400001,-0.0829 16.24,-0.0829 0.28672,-4.20466 0.28673,-4.20466 3.07327,-0.11534 c 4.45468,-0.16718 9.85751,0.13805 10.29982,0.58189 0.22783,0.22863 0.42969,1.86743 0.5124,4.16 0.0751,2.08053 0.20124,4.09877 0.2804,4.48499 l 0.14393,0.70222 14.12154,0.0256 c 7.76684,0.0141 14.24611,0.10256 14.39836,0.19666 0.15226,0.0941 0.27683,0.49379 0.27683,0.88821 0,0.39441 0.15655,0.87366 0.34789,1.06499 0.24544,0.24545 0.24737,0.41 0.007,0.55884 -0.23716,0.14657 -0.22217,0.40175 0.0491,0.83612 0.30789,0.49301 0.30651,0.75953 -0.007,1.26082 -0.48359,0.77434 -0.55126,6.40434 -0.077,6.40434 0.176,0 0.32,0.288 0.32,0.64 0,0.352 -0.12467,0.64 -0.27704,0.64 -0.15238,0 -0.29971,4.068 -0.3274,9.04 -0.048,8.6133 -0.26079,11.97694 -1.00726,15.92 -0.18326,0.968 -0.3851,2.192 -0.44854,2.72 -0.15972,1.32931 -1.24723,5.20788 -1.83935,6.56 -1.08185,2.47045 -1.19484,2.85803 -0.88834,3.04746 0.16936,0.10467 0.29123,0.43381 0.27081,0.73143 -0.0335,0.48784 -0.0515,0.48598 -0.18346,-0.0189 -0.16979,-0.64971 -0.73942,-0.75938 -0.73942,-0.14236 0,0.6873 -5.12357,10.63666 -6.11947,11.88329 -0.74982,0.9386 -1.83717,2.42044 -2.8317,3.85907 -0.60835,0.88 -1.2552,1.76501 -1.43746,1.96668 -3.7774,4.17987 -7.23048,7.81153 -7.88848,8.29643 -0.46041,0.33929 -1.75641,1.43953 -2.88,2.44497 -1.12359,1.00544 -2.51089,2.20624 -3.08289,2.66844 -0.572,0.46221 -1.04,1.05898 -1.04,1.32616 0,0.27956 -0.18588,0.41447 -0.43785,0.31778 -0.24995,-0.0959 -1.10307,0.50735 -1.98797,1.40576 -0.85257,0.86558 -1.64985,1.57378 -1.77174,1.57378 -0.12189,0 -0.58307,-0.612 -1.02485,-1.36 z"
       id="path25" />
    <path
       style="fill:#ffffff;fill-opacity:1;stroke:#000000;stroke-width:2;stroke-dasharray:none;stroke-opacity:1"
       d="m 151.26809,382.44301 c -2.70017,-1.4651 -2.26856,-5.68269 0.67169,-6.56361 1.59998,-0.47937 2.75752,-0.19147 3.92529,0.9763 1.65183,1.65183 1.14181,4.50014 -1.00453,5.61006 -1.15985,0.59978 -2.4603,0.59154 -3.59245,-0.0228 z"
       id="path24" />
    <path
       style="fill:#ffffff;fill-opacity:1;stroke:#000000;stroke-width:2;stroke-dasharray:none;stroke-opacity:1"
       d="m 238.44807,408.15993 c -0.28759,-0.28759 -0.384,-4.09803 -0.384,-15.17714 0,-16.92949 -0.20265,-15.79886 2.83165,-15.79886 3.23662,0 3.24835,0.0243 3.24835,6.73815 v 5.74181 h 7.2 7.2 v -5.73714 c 0,-4.78892 0.0831,-5.82026 0.50285,-6.24 0.6793,-0.67929 3.8984,-0.68241 4.86594,-0.005 l 0.71121,0.49814 v 14.679 c 0,12.91788 -0.0603,14.73933 -0.50286,15.18186 -0.61852,0.61852 -4.6023,0.70969 -5.19314,0.11885 -0.27144,-0.27143 -0.384,-2.14755 -0.384,-6.4 v -6.016 h -7.2 -7.2 v 6.016 c 0,4.25245 -0.11257,6.12857 -0.384,6.4 -0.22656,0.22656 -1.31556,0.384 -2.656,0.384 -1.34045,0 -2.42945,-0.15744 -2.656,-0.384 z"
       id="path23" />
    <path
       style="fill:#ffffff;fill-opacity:1;stroke:#000000;stroke-width:2;stroke-dasharray:none;stroke-opacity:1"
       d="m 161.32807,408.15993 c -0.28435,-0.28435 -0.384,-3.35394 -0.384,-11.82874 0,-13.08485 -0.24376,-12.10726 3.01896,-12.10726 1.33727,0 1.93604,0.155 2.40312,0.62208 0.61611,0.61611 0.63907,0.61611 2.39201,0 2.17488,-0.76441 5.92644,-0.82581 7.90568,-0.12939 0.77013,0.27099 1.94032,0.92584 2.60043,1.45524 l 1.20019,0.96255 1.35981,-0.93547 c 2.01305,-1.38486 4.079,-1.97501 6.91398,-1.97501 3.30134,0 5.19813,0.67571 7.09378,2.52709 2.61334,2.5523 2.87204,3.73238 2.87204,13.10092 0,5.73644 -0.10601,8.03 -0.384,8.30799 -0.22162,0.22162 -1.2832,0.384 -2.5104,0.384 -3.26964,0 -3.1856,0.22101 -3.1856,-8.37787 0,-6.97264 -0.0238,-7.24276 -0.72961,-8.29014 -0.91659,-1.36014 -1.93359,-1.88126 -3.68314,-1.88727 -2.03863,-0.007 -3.82872,1.0339 -4.56427,2.65406 -0.53435,1.17696 -0.60979,2.14572 -0.61595,7.91002 -0.009,8.07131 0.0235,7.9912 -3.20703,7.9912 -3.25055,0 -3.2,0.13272 -3.2,-8.40148 0,-8.001 -0.19325,-8.9108 -2.05821,-9.69003 -2.6439,-1.1047 -5.76218,-0.10261 -6.88255,2.21178 -0.60158,1.24269 -0.65924,1.95037 -0.65924,8.09117 0,7.96515 0.0735,7.78856 -3.2412,7.78856 -1.18395,0 -2.23525,-0.16445 -2.4548,-0.384 z"
       id="path22" />
    <path
       style="fill:#ffffff;fill-opacity:1;stroke:#000000;stroke-width:2;stroke-dasharray:none;stroke-opacity:1"
       d="m 150.56693,408.04108 c -0.43791,-0.43791 -0.50286,-1.94355 -0.50286,-11.65715 0,-12.92236 -0.19059,-12.16 3.04,-12.16 3.23343,0 3.04,-0.78462 3.04,12.3316 0,12.98922 0.26348,11.9884 -3.1561,11.9884 -1.31714,0 -2.07575,-0.15756 -2.42104,-0.50285 z"
       id="path21" />
    <path
       style="fill:#ffffff;fill-opacity:1;stroke:#000000;stroke-width:2;stroke-dasharray:none;stroke-opacity:1"
       d="m 123.37165,407.84619 c -0.44598,-0.63672 -0.50758,-2.55207 -0.50758,-15.78226 0,-17.55752 -0.19595,-16.48 2.99699,-16.48 3.1673,0 3.22412,0.0914 3.34663,5.381 l 0.10362,4.47396 1.72839,-0.60748 c 2.15359,-0.75692 6.19903,-0.81345 8.18414,-0.11436 3.0601,1.07767 4.90544,3.04421 5.85405,6.23853 0.39961,1.34564 0.50618,3.30687 0.50618,9.31517 0,8.75641 0.18435,8.27318 -3.1561,8.27318 -2.9869,0 -2.92082,0.17842 -2.94196,-7.94285 -0.0117,-4.50726 -0.15184,-7.31895 -0.4,-8.02718 -0.53845,-1.5367 -1.78315,-2.34756 -3.86913,-2.52055 -2.33307,-0.19347 -4.27589,0.71405 -5.2539,2.45418 -0.65444,1.16442 -0.69921,1.65814 -0.70363,7.75997 -0.006,8.16826 0.0266,8.08213 -3.09596,8.20989 -2.06596,0.0845 -2.33266,0.0242 -2.79174,-0.6312 z"
       id="path20" />
    <path
       style="fill:#ffffff;fill-opacity:1;stroke:#000000;stroke-width:2;stroke-dasharray:none;stroke-opacity:1"
       d="m 18.402219,407.83269 c -0.42923,-0.61282 -0.49815,-2.36142 -0.49815,-12.64 v -11.9288 h -4.29714 c -5.1942701,0 -5.3028601,-0.0623 -5.3028601,-3.04 0,-3.24113 -0.84839,-3.04 12.8228601,-3.04 11.39048,0 11.84025,0.0231 12.45714,0.64 0.48485,0.48485 0.64,1.06667 0.64,2.4 0,2.84373 -0.36154,3.04 -5.6,3.04 h -4.32 v 12.13715 c 0,10.60709 -0.0634,12.20053 -0.50285,12.64 -0.35958,0.35957 -1.12944,0.50285 -2.70186,0.50285 -1.90962,0 -2.26455,-0.0936 -2.69714,-0.7112 z"
       id="path19" />
    <path
       style="fill:#ffffff;fill-opacity:1;stroke:#000000;stroke-width:2;stroke-dasharray:none;stroke-opacity:1"
       d="m 298.33406,408.55058 c -4.15112,-0.88351 -6.57146,-3.73425 -6.55241,-7.71759 0.0104,-2.18285 0.80095,-3.95256 2.34838,-5.25734 1.8638,-1.57152 2.97609,-1.86554 7.77404,-2.05492 l 4.47999,-0.17684 -0.0969,-0.8 c -0.0533,-0.44 -0.52356,-1.196 -1.04505,-1.68 -0.84435,-0.78366 -1.19028,-0.88 -3.15985,-0.88 -1.91033,0 -2.50822,0.15456 -4.38774,1.13423 -2.84761,1.48428 -3.46999,1.38762 -4.65963,-0.72366 -1.15442,-2.04878 -1.0171,-2.61466 0.95078,-3.91813 2.2534,-1.49259 5.09676,-2.25244 8.42866,-2.25244 4.67822,0 7.563,1.49624 9.16182,4.75196 l 0.8879,1.80804 0.10315,8.354 c 0.12064,9.77024 0.23297,9.406 -2.90081,9.406 -1.29263,0 -2.13247,-0.16338 -2.48642,-0.4837 -0.47716,-0.43182 -0.68577,-0.42968 -1.9452,0.02 -1.73507,0.6195 -5.11704,0.85004 -6.90072,0.4704 z m 5.87942,-5.98108 c 1.16325,-0.55199 2.32729,-2.08394 2.32939,-3.06561 0.001,-0.5003 -0.38353,-0.56 -3.6076,-0.56 -4.23804,0 -5.0312,0.32916 -5.0312,2.08793 0,0.8618 0.18527,1.19214 0.88,1.56904 1.188,0.64451 4.03985,0.62804 5.42941,-0.0314 z"
       id="path18" />
    <path
       style="fill:#ffffff;fill-opacity:1;stroke:#000000;stroke-width:2;stroke-dasharray:none;stroke-opacity:1"
       d="m 276.96002,408.37054 c -5.33359,-1.34709 -8.78032,-5.60179 -9.07422,-11.20136 -0.3972,-7.56764 4.43449,-12.91673 11.68626,-12.93769 4.94431,-0.0143 8.45815,2.05408 10.49665,6.1787 0.96236,1.94721 1.19676,2.81493 1.32104,4.89047 0.0871,1.45449 0.0129,2.72654 -0.17521,3.00323 -0.27113,0.39886 -1.7387,0.50705 -8.68089,0.64 l -8.3546,0.16 0.74509,1.12 c 2.07364,3.11704 8.07592,3.49766 10.62952,0.67405 0.90367,-0.99921 1.94109,-0.84262 3.14265,0.47437 1.41533,1.5513 1.61815,1.96787 1.39364,2.86239 -0.25423,1.01293 -2.69822,2.84565 -4.88667,3.66445 -2.35793,0.88222 -5.83043,1.08079 -8.24326,0.47139 z m 7.67709,-15.80142 c -0.80172,-1.55036 -2.2945,-2.38735 -4.50939,-2.52838 -2.17071,-0.13822 -3.50539,0.35412 -4.82762,1.78083 -1.47449,1.591 -1.22847,1.68232 4.53218,1.68232 h 5.28822 z"
       id="path17" />
    <path
       style="fill:#ffffff;fill-opacity:1;stroke:#000000;stroke-width:2;stroke-dasharray:none;stroke-opacity:1"
       d="m 207.75162,408.42438 c -3.71688,-0.94551 -5.89386,-3.37133 -6.11292,-6.8117 -0.16886,-2.65185 0.52848,-4.53631 2.21184,-5.97721 1.91633,-1.6403 3.87312,-2.13158 8.49028,-2.13158 2.17978,0 3.96325,-0.12251 3.96325,-0.27225 0,-0.93368 -0.83985,-2.37466 -1.6188,-2.77747 -1.04827,-0.54208 -3.77158,-0.61382 -5.46328,-0.14392 -0.63915,0.17753 -1.68954,0.68073 -2.33421,1.11821 -1.60682,1.09042 -2.53587,1.02522 -3.50547,-0.24599 -1.85335,-2.42987 -1.68543,-3.45782 0.80641,-4.93645 2.69599,-1.59978 4.9565,-2.11096 8.71909,-1.97168 2.90139,0.1074 3.42493,0.22279 4.99854,1.10168 1.91062,1.06712 3.58345,3.16097 4.14732,5.19113 0.48257,1.73748 0.43576,17.10338 -0.0536,17.59274 -0.57271,0.57271 -4.40042,0.4973 -5.06009,-0.0997 -0.47716,-0.43182 -0.68577,-0.42968 -1.9452,0.02 -1.95139,0.69674 -5.24248,0.85313 -7.24316,0.3442 z m 6.109,-5.76171 c 1.28778,-0.53807 2.44345,-1.93896 2.44345,-2.96193 0,-0.74915 -0.035,-0.7568 -3.44,-0.75213 -4.03909,0.006 -4.9941,0.34117 -5.13752,1.80558 -0.14449,1.47542 1.10234,2.3497 3.35095,2.3497 0.94992,0 2.20232,-0.19855 2.78312,-0.44122 z"
       id="path16" />
    <path
       style="fill:#ffffff;fill-opacity:1;stroke:#000000;stroke-width:2;stroke-dasharray:none;stroke-opacity:1"
       d="m 107.74836,408.55306 c -3.78379,-0.68622 -7.28429,-2.54798 -7.28429,-3.87419 0,-0.95665 1.57356,-3.49665 2.3993,-3.87288 0.56553,-0.25768 1.04782,-0.13084 2.43303,0.63987 3.01704,1.67864 6.92291,2.04059 8.84767,0.8199 1.76614,-1.12008 0.50512,-2.05837 -3.97759,-2.95962 -5.0982,-1.02498 -6.98913,-2.02362 -8.15952,-4.3092 -1.49851,-2.92633 -0.55228,-6.98398 2.07195,-8.88496 3.39527,-2.45952 10.13573,-2.57365 14.70004,-0.2489 1.6498,0.8403 1.80845,1.74785 0.67522,3.86252 -1.10147,2.05541 -1.73015,2.22447 -4.02304,1.08187 -1.33853,-0.66701 -2.1139,-0.82358 -4.07869,-0.82358 -2.74205,0 -3.95287,0.54613 -3.78657,1.7079 0.13125,0.91702 1.17418,1.36695 4.91095,2.11865 6.00725,1.20844 8.16007,2.97836 8.41073,6.91481 0.22259,3.49579 -1.39719,5.815 -5.02372,7.19298 -1.86606,0.70904 -5.94635,1.02822 -8.11547,0.63483 z"
       id="path15" />
    <path
       style="fill:#ffffff;fill-opacity:1;stroke:#000000;stroke-width:2;stroke-dasharray:none;stroke-opacity:1"
       d="m 85.584069,408.43568 c -7.94627,-2.05679 -11.64342,-10.25386 -7.9898,-17.7145 1.28025,-2.61427 2.91192,-4.21889 5.5898,-5.49716 1.58398,-0.7561 2.12805,-0.84013 5.44,-0.84013 3.3556,0 3.83515,0.0765 5.44,0.86754 4.3126,2.12575 6.720001,6.1161 6.720001,11.13861 0,2.92348 -0.53606,4.87718 -1.937441,7.06104 -2.58391,4.02667 -8.44824,6.23072 -13.26256,4.9846 z m 6.67007,-6.71201 c 1.76715,-1.34787 2.27619,-2.54339 2.28358,-5.36315 0.006,-2.11417 -0.10597,-2.5931 -0.874,-3.75368 -1.13306,-1.71216 -2.907,-2.6231 -5.1069,-2.62245 -3.35591,9.9e-4 -5.71309,2.15341 -5.95035,5.43346 -0.24864,3.43742 0.55302,5.2733 2.96397,6.78777 1.53692,0.96544 5.12532,0.70669 6.6837,-0.48195 z"
       id="path14" />
    <path
       style="fill:#ffffff;fill-opacity:1;stroke:#000000;stroke-width:2;stroke-dasharray:none;stroke-opacity:1"
       d="m 40.318569,408.53363 c -3.70733,-0.77692 -6.81107,-3.2373 -8.46424,-6.70974 -0.91207,-1.91577 -0.99026,-2.34528 -0.99026,-5.44 0,-2.9757 0.0981,-3.56928 0.85762,-5.18978 1.201,-2.56241 3.37506,-4.77455 5.7874,-5.88877 1.81542,-0.83851 2.31181,-0.92145 5.51498,-0.92145 3.13451,0 3.71696,0.0924 5.31841,0.84326 5.95529,2.79237 8.47301,9.53871 6.01489,16.11714 -0.98121,2.62589 -3.875,5.53975 -6.46132,6.50612 -2.15179,0.804 -5.54235,1.10971 -7.57748,0.68322 z m 5.79774,-6.45755 c 4.21877,-2.37108 3.83807,-9.80678 -0.59696,-11.65985 -1.52422,-0.63686 -3.84045,-0.53533 -5.43877,0.2384 -4.24945,2.05712 -4.27453,9.50393 -0.039,11.5911 1.58715,0.78212 4.52742,0.70001 6.07476,-0.16965 z"
       id="path13" />
    <path
       style="fill:#ffffff;fill-opacity:1;stroke:#000000;stroke-width:2;stroke-dasharray:none;stroke-opacity:1"
       d="m 347.50788,388.38389 c 1.70176,3.872 3.12944,7.07636 3.17261,7.1208 0.0432,0.0444 1.4941,-3.12357 3.22429,-7.04 1.73019,-3.91644 3.36015,-7.3728 3.62213,-7.6808 0.35999,-0.4232 0.96674,-0.56 2.48389,-0.56 2.14356,0 3.01326,0.46828 3.01326,1.62243 0,0.53128 -9.54073,22.30415 -11.23908,25.64868 -0.89063,1.75388 -2.44465,3.39689 -3.93062,4.15569 -1.86433,0.95201 -4.99201,1.08206 -7.1876,0.29887 -2.20299,-0.78583 -3.72288,-2.24387 -3.45435,-3.31378 0.31411,-1.25151 2.0731,-3.45189 2.75945,-3.45189 0.34308,0 1.15427,0.36 1.80265,0.8 1.6131,1.09468 2.84711,1.04159 3.98006,-0.17125 0.49901,-0.53419 1.06403,-1.44617 1.2556,-2.02664 0.32528,-0.9856 0.11256,-1.58259 -3.21699,-9.02875 -0.98045,-2.19267 -6.45818,-11.12072 -4.22501,-11.12072 h 2.39948 2.56488 c 1.36235,0 2.12447,2.81136 2.97535,4.74736 z"
       id="path48" />
    <path
       style="fill:#ffffff;fill-opacity:1;stroke:#000000;stroke-width:2;stroke-dasharray:none;stroke-opacity:1"
       d="m 331.84464,399.26859 c -2.18869,4.91284 -4.18047,9.00958 -4.42618,9.10387 -0.24571,0.0943 -1.36764,0.17143 -2.49319,0.17143 -1.78207,0 -2.10873,-0.095 -2.5285,-0.7357 -0.26513,-0.40464 -2.58494,-5.48064 -5.15513,-11.28 -4.37412,-9.86974 -4.64501,-10.59548 -4.23431,-11.3443 0.39439,-0.71909 0.66609,-0.80938 2.68658,-0.89278 1.83672,-0.0758 2.33926,0.012 2.74779,0.48 0.27499,0.31503 1.75709,3.45278 3.29357,6.97278 1.53648,3.52 2.96098,6.72007 3.16556,7.11126 0.33467,0.63995 0.69099,-0.0108 3.55398,-6.49048 1.75011,-3.96095 3.41549,-7.41302 3.70083,-7.67126 0.38679,-0.35004 2.5801,-0.49129 3.88402,-0.46952 0.95407,0.0159 -0.87158,5.21465 -1.71416,7.62355 -0.86116,2.46201 -2.48086,7.42115 -2.48086,7.42115 z"
       id="path12"
       sodipodi:nodetypes="csssssssssssssc" />
    <path
       style="fill:#ffffff;fill-opacity:1;stroke:#000000;stroke-width:2;stroke-dasharray:none;stroke-opacity:1"
       d="m 55.922189,416.05649 c -0.82603,-0.26477 -2.02614,-0.97584 -2.66691,-1.58016 -1.3093,-1.23483 -1.29796,-1.66041 0.10057,-3.77373 1.06142,-1.60391 1.93924,-1.79251 3.47762,-0.74715 1.522,1.03422 2.97357,1.07503 3.85739,0.10844 0.74594,-0.81579 1.69321,-2.57753 1.69321,-3.14903 0,-0.20944 -2.016,-4.87638 -4.48,-10.37097 -2.464,-5.49458 -4.48,-10.3653 -4.48,-10.82382 0,-0.49671 0.25017,-0.96755 0.61896,-1.16492 0.93679,-0.50135 4.37054,-0.41604 4.90853,0.12195 0.24927,0.24926 1.86704,3.63326 3.59504,7.52 1.72801,3.88673 3.22636,7.06391 3.32966,7.06039 0.10329,-0.004 1.55581,-3.11822 3.22781,-6.92155 1.672,-3.80333 3.22817,-7.18444 3.45815,-7.51359 0.32966,-0.47182 0.82503,-0.59846 2.34104,-0.59846 2.3845,0 3.16081,0.38011 3.16081,1.54762 0,0.76015 -8.46712,20.21086 -11.02748,25.33238 -1.07561,2.15154 -2.47724,3.68199 -4.17252,4.55599 -1.66052,0.85609 -4.9263,1.04267 -6.94188,0.39661 z"
       id="path11" />
    <path
       style="fill:#ffffff;fill-opacity:1;stroke:#000000;stroke-width:2;stroke-dasharray:none;stroke-opacity:1"
       d="m 236.99568,419.74629 c -1.30733,-1.14785 -1.65572,-2.51017 -1.02685,-4.01528 1.00807,-2.41266 4.07587,-3.04849 5.96696,-1.23672 3.38714,3.24509 -1.41329,8.34859 -4.94011,5.252 z"
       id="path10" />
    <path
       style="fill:#ffffff;fill-opacity:1;stroke:#000000;stroke-width:2;stroke-dasharray:none;stroke-opacity:1"
       d="m 236.64221,445.5927 c -0.42699,-0.60962 -0.49814,-2.2551 -0.49814,-11.52 0,-12.65752 -0.15055,-12.0888 3.2,-12.0888 3.35054,0 3.2,-0.56872 3.2,12.0888 0,12.85973 0.16444,12.2312 -3.2,12.2312 -1.9145,0 -2.26909,-0.0933 -2.70186,-0.7112 z"
       id="path9" />
    <path
       style="fill:#ffffff;fill-opacity:1;stroke:#000000;stroke-width:2;stroke-dasharray:none;stroke-opacity:1"
       d="m 220.99366,445.71871 c -0.4709,-0.52035 -0.52959,-1.78917 -0.52959,-11.4488 0,-12.80607 -0.12519,-12.28601 2.95752,-12.28601 1.49792,0 2.11729,0.14621 2.62185,0.61892 0.65109,0.60998 0.68605,0.61013 2.42063,0.0104 2.19843,-0.76005 4.88271,-0.82094 5.57714,-0.12651 0.64262,0.64262 0.68653,3.92363 0.0639,4.77512 -0.31701,0.43355 -1.03297,0.66179 -2.57729,0.82163 -1.60351,0.16597 -2.34443,0.4113 -2.96229,0.98086 -1.62443,1.49744 -1.82029,2.47014 -1.9571,9.71953 -0.0739,3.9166 -0.26363,6.88687 -0.45477,7.12 -0.20318,0.24781 -1.14644,0.4 -2.47918,0.4 -1.67767,0 -2.2678,-0.12882 -2.68082,-0.58519 z"
       id="path8" />
    <path
       style="fill:#ffffff;fill-opacity:1;stroke:#000000;stroke-width:2;stroke-dasharray:none;stroke-opacity:1"
       d="m 104.04807,445.9199 c -0.28413,-0.28413 -0.384,-3.31581 -0.384,-11.65714 0,-12.99759 -0.16991,-12.27886 2.90286,-12.27886 1.47298,0 2.0408,0.14366 2.53969,0.64255 l 0.64254,0.64254 1.99746,-0.67517 c 1.61951,-0.54742 2.54239,-0.64981 4.87745,-0.54115 4.25818,0.19816 6.80247,1.67998 8.41567,4.90138 1.04211,2.08101 1.34433,4.66574 1.34433,11.49742 0,7.9076 0.0223,7.85243 -3.17896,7.85243 -1.63769,0 -2.29233,-0.13185 -2.62186,-0.52806 -0.33437,-0.40205 -0.47736,-2.34809 -0.59918,-8.15461 l -0.16,-7.62655 -1.02462,-1.02386 c -0.87017,-0.86952 -1.3043,-1.04229 -2.88,-1.14614 -2.55769,-0.16857 -4.45331,0.79986 -5.45538,2.78703 -0.67755,1.34362 -0.72,1.81866 -0.72,8.05714 0,5.6 -0.0781,6.70742 -0.50285,7.1322 -0.61852,0.61852 -4.60231,0.70969 -5.19315,0.11885 z"
       id="path7" />
    <path
       style="fill:#ffffff;fill-opacity:1;stroke:#000000;stroke-width:2;stroke-dasharray:none;stroke-opacity:1"
       d="m 92.482359,445.69807 c -0.22351,-0.41763 -0.33829,-5.57673 -0.33829,-15.20575 v -14.57366 l 0.80228,-0.52568 c 0.93488,-0.61256 4.3829,-0.51174 5.04249,0.14744 0.58713,0.58677 0.72597,28.67116 0.14734,29.80348 -0.37491,0.73367 -0.61224,0.80773 -2.86217,0.89313 -2.16944,0.0824 -2.49251,0.02 -2.79165,-0.53896 z"
       id="path6" />
    <path
       style="fill:#ffffff;fill-opacity:1;stroke:#000000;stroke-width:2;stroke-dasharray:none;stroke-opacity:1"
       d="m 274.65989,446.14587 c -2.50014,-0.54371 -5.48735,-1.99999 -6.13732,-2.99196 -0.47279,-0.72157 -0.44639,-0.87349 0.43924,-2.52733 1.29653,-2.42119 1.85878,-2.62016 4.01458,-1.42071 2.12222,1.18078 4.97966,1.79488 6.96584,1.49706 1.97889,-0.29672 2.60184,-0.67297 2.60184,-1.57146 0,-0.92941 -0.69074,-1.22639 -4.96,-2.13257 -3.93961,-0.8362 -5.13672,-1.31945 -6.51816,-2.63122 -1.39179,-1.32159 -1.96184,-2.68838 -1.96184,-4.70378 0,-2.98323 1.39816,-5.13499 4.32,-6.64844 3.0722,-1.59134 9.38754,-1.33467 12.82933,0.52142 2.01066,1.0843 2.19402,2.07853 0.79064,4.28702 -1.12353,1.7681 -1.50991,1.83959 -3.9082,0.72313 -1.31268,-0.61109 -2.23402,-0.7965 -3.95177,-0.79528 -2.67395,0.002 -3.84,0.48693 -3.84,1.59729 0,1.0251 0.86737,1.42775 4.76434,2.21167 5.53823,1.11409 7.77919,2.65693 8.49435,5.8481 0.37755,1.68474 0.1883,3.09879 -0.63375,4.73509 -1.80903,3.60093 -7.40954,5.28497 -13.30912,4.00197 z"
       id="path5" />
    <path
       style="fill:#ffffff;fill-opacity:1;stroke:#000000;stroke-width:2;stroke-dasharray:none;stroke-opacity:1"
       d="m 254.76048,446.30169 c -2.06345,-0.43618 -4.61163,-1.69831 -6.0471,-2.99517 -2.77387,-2.50603 -4.32973,-7.27117 -3.64593,-11.16645 0.74753,-4.25832 3.09221,-7.45272 6.71821,-9.15291 1.5858,-0.74357 2.19562,-0.84315 5.15841,-0.84233 3.97062,10e-4 5.46268,0.53667 7.93327,2.84762 1.99391,1.86507 3.19493,4.33373 3.65967,7.52236 0.32518,2.23101 0.30461,2.6136 -0.18032,3.3537 l -0.54738,0.83539 h -8.15262 c -5.85373,0 -8.15262,0.10211 -8.15262,0.36211 0,0.19916 0.612,0.9724 1.36,1.71831 1.60093,1.59646 3.77394,2.237 6.10905,1.80075 1.4443,-0.26982 3.33846,-1.26267 4.05416,-2.12503 0.6392,-0.77019 1.72091,-0.55045 2.77562,0.56386 1.40401,1.48335 1.79442,2.34783 1.39628,3.09177 -0.59241,1.10692 -2.9734,2.89154 -4.73932,3.55226 -2.00953,0.75186 -5.70258,1.05585 -7.69938,0.63376 z m 7.30359,-15.34665 c 0,-0.57188 -1.90868,-2.4888 -2.87779,-2.89022 -0.55422,-0.22957 -1.74844,-0.34097 -2.8224,-0.26329 -2.10564,0.15231 -3.61308,1.01967 -4.39286,2.5276 l -0.48339,0.93477 h 5.28822 c 3.18505,0 5.28822,-0.12284 5.28822,-0.30886 z"
       id="path4" />
    <path
       style="fill:#ffffff;fill-opacity:1;stroke:#000000;stroke-width:2;stroke-dasharray:none;stroke-opacity:1"
       d="m 188.16288,446.12608 c -2.62228,-0.56861 -5.33,-1.88811 -6.01271,-2.93006 -0.50744,-0.77445 -0.49076,-0.8846 0.38807,-2.56315 1.26586,-2.41776 1.87229,-2.63206 4.03815,-1.427 3.84779,2.14085 9.56768,2.05708 9.56768,-0.14012 0,-0.86593 -0.83453,-1.21006 -4.96,-2.04538 -5.86888,-1.18832 -8.11327,-2.93846 -8.41367,-6.5609 -0.23777,-2.8673 0.11456,-3.8993 1.95634,-5.73011 2.12503,-2.11237 3.98772,-2.74858 8.01408,-2.7372 2.72038,0.008 4.79419,0.47387 7.56325,1.70017 0.32529,0.14406 0.65569,-0.097 1.02512,-0.74793 0.48045,-0.84656 0.7177,-0.9605 2,-0.9605 h 1.45488 v -1.62103 c 0,-2.60127 0.26926,-2.85897 2.98726,-2.85897 1.38146,0 2.48055,0.15581 2.70874,0.384 0.2112,0.2112 0.384,1.2192 0.384,2.24 v 1.856 h 2.69714 c 3.36434,0 3.70286,0.2633 3.70286,2.88 0,2.61671 -0.33852,2.88 -3.70286,2.88 h -2.69714 v 5.92 c 0,5.49334 0.0461,5.96613 0.64,6.56 0.79135,0.79136 1.70434,0.7959 3.35246,0.0167 1.55551,-0.73545 2.15431,-0.48753 3.04649,1.26128 1.27168,2.4927 0.53949,3.70856 -2.82168,4.68568 -3.07873,0.89501 -6.44179,0.091 -8.44484,-2.01886 -1.59438,-1.67941 -1.85243,-3.08153 -1.85243,-10.065 v -6.35981 h -1.42112 c -0.78161,0 -1.51011,-0.144 -1.61888,-0.32 -0.34733,-0.56198 -0.71981,-0.34877 -1.3976,0.8 -0.79061,1.33999 -1.68699,1.44972 -3.43203,0.42012 -0.8886,-0.52429 -1.83653,-0.72881 -3.77829,-0.8152 -3.02014,-0.13437 -4.19208,0.29063 -4.19208,1.52022 0,1.02094 0.86158,1.4245 4.74873,2.22431 6.40747,1.31839 8.53127,3.11279 8.53127,7.20808 0,3.07305 -1.18854,5.04903 -3.85287,6.40552 -2.759,1.40469 -6.48182,1.74718 -10.20832,0.93913 z"
       id="path3" />
    <path
       style="fill:#ffffff;fill-opacity:1;stroke:#000000;stroke-width:2;stroke-dasharray:none;stroke-opacity:1"
       d="m 164.81011,446.11558 c -3.25362,-0.87476 -5.249,-2.65923 -6.39323,-5.71746 -0.61766,-1.65083 -0.67281,-2.45211 -0.67281,-9.77497 0,-9.17425 -0.19574,-8.63926 3.16082,-8.63926 2.92624,0 2.91918,-0.0204 2.91918,8.42284 0,7.73349 0.2092,8.77247 1.94726,9.67126 1.43379,0.74144 4.46855,0.60547 5.76542,-0.25832 2.1006,-1.39913 2.34983,-2.42467 2.46807,-10.15578 0.12159,-7.94979 0.0112,-7.68 3.14227,-7.68 3.12985,0 2.99698,-0.54717 2.99698,12.34161 0,12.74517 0.21085,11.97839 -3.29394,11.97839 -1.80051,0 -2.17598,-0.098 -2.46824,-0.64407 -0.29149,-0.54465 -0.45147,-0.58692 -1.03649,-0.27382 -2.25785,1.20836 -5.66976,1.50001 -8.53529,0.72958 z"
       id="path2" />
  </g>
</svg>
